<?xml version="1.0" encoding="utf-8"?>
<!-- Generator: Adobe Illustrator 23.0.3, SVG Export Plug-In . SVG Version: 6.00 Build 0)  -->
<svg version="1.1" id="Capa_1" xmlns="http://www.w3.org/2000/svg" xmlns:xlink="http://www.w3.org/1999/xlink" x="0px" y="0px"
	 viewBox="0 0 176.9 160.2" style="enable-background:new 0 0 176.9 160.2;" xml:space="preserve">
<style type="text/css">
	.st0{fill:#C8002D;}
	.st1{fill:#003FA2;}
	.st2{fill:#FFFFFF;}
</style>
<g>
	<rect x="72.2" class="st0" width="104.7" height="160.2"/>
	<rect class="st1" width="72.2" height="160.2"/>
	<g>
		<path class="st2" d="M42.7,31.2v2.5C43.2,32.7,43,31.8,42.7,31.2"/>
		<path class="st2" d="M48,16.6c-0.1,0.2-0.4,0.2-0.5,0.5C47.2,16.8,47.7,16.3,48,16.6 M49.7,16.5c0.2-0.1,0.5-0.6,0.8-0.4
			c0.2,0.1,0.3,0.3,0.5,0.4c0.2,0.1,0.4,0.3,0.5,0.4c0.1,0.2-0.2,0.7-0.5,0.3c-0.2-0.3-0.5-1-1-0.7c-0.4,0.2-0.7,0.5-0.8,0.2
			C49.2,16.5,49.5,16.5,49.7,16.5 M49.7,16.8c0.2-0.2,0.2,0.6,0.8,0.4C50.1,17.8,49.5,17.2,49.7,16.8 M47.6,17.7
			c0.1,0,0-0.3,0.3-0.4c0.3,0,0.7,0.2,0.8,0.5c0.1,0.3-0.2,1.1,0.8,1.2c0,0,0,0.2,0,0.3h0c0,0.2-0.1,0.4-0.1,0.5c0.1,0,0.1,0,0.2,0
			c1.4,0.1,2.1,0,2.5-0.4c0,0,0.2-0.2,0.4-0.5c0.3-0.7,0.4-1.3,0.2-1.9h0c0,0,0-0.1,0-0.1c0-0.1-0.1-0.1-0.1-0.2
			c-0.3-0.5-1.1-1.2-2.1-1.6c-0.1,0-0.1,0-0.2,0c0,0,0,0,0,0c0,0,0,0,0,0l0,0h0c0,0,0.2,0,0.2,0c0.7,0.1,2,0.8,2.2,1.5
			c0.2-0.1,0.4-0.6,0.5-0.9h0c0-0.1,0-0.5,0.2-0.9c0.1-0.1,0-0.3-0.1-0.3c-0.1,0-0.2,0-0.3,0.1c-0.2,0.4-0.6,0.2-0.4-0.2
			c0.1-0.1,0-0.3-0.1-0.3c-0.1,0-0.2,0-0.3,0.1c-0.2,0.4-0.6,0.2-0.4-0.2c0.1-0.1,0-0.3-0.1-0.3c-0.1,0-0.2,0-0.3,0.1
			c-0.2,0.4-0.6,0.2-0.4-0.2c0.1-0.1,0-0.3-0.1-0.3c-0.1,0-0.2,0-0.3,0.1c-0.1,0.3-0.2,0.4-0.4,0.6c0.8,0.2,1.7,0.6,2.2,1.2
			c0,0,0.2,0.2,0.3,0.3c0,0,0,0,0,0c0,0,0,0,0,0c0,0,0,0.1,0,0.1c0,0,0,0,0,0c-0.1-0.1-0.2-0.2-0.3-0.3c-0.9-0.8-1.7-1.1-2.4-1.2
			c-0.4,0.1-0.3,0.5-0.3,0.9c-0.7-0.2-1.3,0.4-1.3,0.9c0,0.2,0,0.4,0.1,0.6c0,0,0,0,0,0c0,0-0.1-0.1-0.2-0.2c0-0.1-0.1-0.2-0.1-0.4
			c-0.6,0-1.1,0.4-1.1,0.9C47.1,17.3,47.5,17.7,47.6,17.7"/>
		<path class="st2" d="M64,43.1c-0.4-0.5-1.5-0.3-1.5-0.3c0.6-1.8-1-2.2-1-2.2c-0.6-0.2-1,0-1.2,0.1c0,0,0,0,0,0c0,0,0,0,0,0
			c0,0-0.1,0.1-0.1,0.1c-0.1,0.2-0.2,0.4-0.2,0.6c0,0.5,0.4,0.8,0.8,0.8c0.2,0,0.3-0.1,0.5-0.2c0.2-0.1,0.3-0.3,0.3-0.5
			c0.2,0.1,0.3,0.4,0.3,0.4c0.5,1.5-1.2,2-1.2,2c-3.7,1.1-6-0.8-6-0.8l0.7-0.3c0.2-0.1,0.4-0.1,0.6-0.1c0,0,0,0.1,0,0.1
			c0,0.4,0.3,0.7,0.7,0.7c0.4,0,0.7-0.3,0.7-0.7c0-0.1,0-0.3-0.1-0.4l0,0c0-0.1-0.1-0.1-0.1-0.1c-0.4-0.7-1.9-0.2-1.9-0.2
			c0.5-1.2,0.1-2.1,0.1-2.1c-0.3-0.5-0.2-0.6-0.2-0.6C55.1,39,55,39,55,39c-0.2-0.3-0.6-0.1-0.6-0.1c-0.6,0.1-0.7-0.1-0.7-0.1
			c-0.5-0.4-0.7-0.1-0.7-0.1c-0.2,0.1,0.1,0.5,0.1,0.5c-0.5,0-0.7,0.7-0.7,0.7C52.1,40.9,53,41,53,41c0.7,0,0.7-0.5,0.7-0.5
			C53.8,40,53,40,53,40c0.1-0.3,0.3-0.3,0.3-0.3c0.8-0.2,1.1,0.7,1.1,0.7c0.6,1-0.2,1.9-0.2,1.9c-0.1,0.1-0.3,0.1-0.3,0.1
			c-0.4-0.2-1.1-0.7-1.1-0.7c0,0,0,0-0.1,0h-0.3c-0.3,0-0.6,0.1-0.8,0.2c0.3,0.3,1.3,1.1,1.3,1.1c-0.7,0.6-1.2,0.2-1.2,0.2
			c-0.4-0.4-0.3-1-0.2-1.3c0,0-0.1,0-0.1,0c-0.3,0.1-0.7,0.3-1,0.4c0.4,0.6,0.9,1.5,0.9,1.5c-0.8,0.3-1-0.8-1.1-1.5
			c-0.2,0.1-0.3,0.1-0.5,0.2c0,0.1,0,0.2,0,0.2c0.1,0.6,0.6,1.4,0.6,1.4c-0.6-0.1-1,0.3-1,0.3c-0.4,0.3-0.4,0.8-0.4,0.9
			c0,0.2,0.2,0.4,0.4,0.4c0.2,0,0.4-0.2,0.4-0.4c0-0.2-0.2-0.4-0.4-0.4c0.2-0.5,0.6-0.1,0.6-0.1c0.7,0.6-0.4,1.3-0.4,1.3
			c-0.7,0.5-1.4-0.4-1.4-0.4c0.8-1.4,0.9-2.3,0.9-2.9c-0.3,0.1-0.5,0.2-0.8,0.3c0.4,1.2-0.5,1.9-0.5,1.9c-0.2-0.2-0.3-0.8-0.3-0.8
			c-0.1-0.3-0.2-0.6-0.3-0.8c-0.2,0.1-0.5,0.1-0.7,0.2c0.3,0.8,0.4,1.9,0.4,1.9c-0.1,0.2-0.6,0.2-0.6,0.2c-0.6,0.1-0.3-0.3-0.3-0.3
			c0.3-0.3,0.2-0.4,0.2-0.4c-0.2-0.4-0.8,0-0.8,0c-0.9,0.5-0.6,1-0.6,1c0.1,0.3,1,0.6,1,0.6c-0.5,0.4-1.4,0.2-1.5,0.2
			c0-0.3-0.2-0.5-0.5-0.5c0,0-0.1,0-0.1,0c-0.3,0-0.5,0.1-0.6,0.2c0,0.1-0.1,0.1-0.1,0.2L43,46.4c-0.4-0.1-0.6-1.1-0.7-2.1
			c-0.2,0-0.3,0-0.5,0.1c0.1,1,0.3,1.9,0.3,1.9c-0.2,0-1-0.6-1-0.6c-1-0.6-1.7-0.4-1.7-0.4c-0.5,0.1-0.9,0.5-0.9,1.1
			c0,0.6,0.5,1.1,1.1,1.1c0.6,0,1.1-0.5,1.1-1c0.4,0.2,0.7,0.4,0.7,0.4c1,0.6,1.9,0.7,2.1,0.7c0.1,0.4,0.4,0.6,0.8,0.6
			c0.3,0,0.5-0.2,0.7-0.4c2-0.1,2.8-1,2.8-1c0.2-0.3,0.3-0.1,0.3-0.1c0.8,1.1,2.2,0.4,2.2,0.4c0.3-0.1,0.3,0,0.3,0
			c0.3,0.5,0.7,0.2,0.7,0.2c0.6-0.3,0.2-0.7,0.2-0.7c-0.2-0.2,0-0.2,0-0.2c0.7,0.1,0.8-0.3,0.8-0.3c0.1-0.3-0.4-0.6-0.4-0.6
			c-0.1-0.2,0.1-0.3,0.1-0.3c0.4-0.2,0.3-0.5,0.3-0.5c0.5,0,0.5-0.2,0.5-0.2c0-0.2-0.6-0.2-0.6-0.2c-0.5-0.1-0.4-0.3-0.4-0.3
			c0.7,0,1.9-0.4,1.9-0.4c1.7,1.3,4.1,1.7,4.1,1.7c0,0.2,0,0.6,0,0.6c0,0,0,0,0,0c-0.2,0-0.4,0.2-0.4,0.4c0,0.2,0.2,0.4,0.4,0.4
			c0,0,0.1,0,0.1,0c0.8-0.2,0.8-1.4,0.8-1.4c2.2,0.2,3.8-1.5,3.8-1.5c0.2-0.2,0.3-0.1,0.4-0.1c0,0,0,0,0,0c0.1,0.1,0.3,0.2,0.5,0.2
			c0.2,0,0.4-0.1,0.5-0.3c0.1-0.1,0.1-0.3,0.1-0.4v0v0C64.2,43.2,64,43.1,64,43.1"/>
		<path class="st2" d="M37.1,46c0.2-0.1,0.3-0.3,0.3-0.3c0-0.6-0.4-0.9-0.4-0.9c-0.3,0-0.5,0-0.8,0h0c-0.3,0-0.5,0-0.8,0
			c0,0-0.5,0.3-0.4,0.9c0,0,0,0.2,0.3,0.3c0,0-0.6,0.2-0.6,0.6c0,0-0.1,0.3,0.4,0.7c0,0,0.4,0.4,0.5,0.7c0,0,0,0.4,0.6,0.4
			c0.6,0,0.6-0.4,0.6-0.4c0.1-0.3,0.5-0.7,0.5-0.7c0.5-0.4,0.4-0.7,0.4-0.7C37.6,46.2,37.1,46,37.1,46"/>
		<polygon class="st2" points="41.3,43.5 41.5,43.5 41.4,43.1 		"/>
		<polygon class="st2" points="31.4,43.5 31.7,43.5 31.5,43.2 		"/>
		<path class="st2" d="M30.2,42.7C30.2,42.7,30.2,42.7,30.2,42.7l-0.1,0.4c0.1,0,0.2,0,0.2,0c0,0,0.1,0,0.1-0.1c0,0,0-0.1,0.1-0.1
			c0-0.1,0-0.1,0-0.2C30.4,42.7,30.3,42.7,30.2,42.7"/>
		<path class="st2" d="M34.5,43c-0.1,0-0.2,0-0.2,0.1c-0.1,0.1-0.1,0.2-0.1,0.4c0,0.2,0,0.3,0.1,0.4c0,0.1,0.1,0.1,0.2,0.1
			c0.1,0,0.2,0,0.2-0.1c0.1-0.1,0.1-0.2,0.1-0.4c0-0.2,0-0.3-0.1-0.4C34.7,43.1,34.6,43,34.5,43"/>
		<path class="st2" d="M38.2,43c-0.1,0-0.2,0-0.2,0.1c0,0.1-0.1,0.2-0.1,0.4c0,0.2,0,0.3,0.1,0.4c0.1,0.1,0.1,0.1,0.2,0.1
			c0.1,0,0.2,0,0.2-0.1c0.1-0.1,0.1-0.2,0.1-0.4c0-0.2,0-0.3-0.1-0.4C38.4,43.1,38.3,43,38.2,43"/>
		<polygon class="st2" points="28.1,43 28.3,43.1 28.3,42.7 		"/>
		<path class="st2" d="M22.4,40.8l-0.2,0.4l0.1,0c0.1,0,0.2,0,0.2,0c0,0,0.1-0.1,0.1-0.1c0-0.1,0-0.1,0-0.2c0,0,0-0.1-0.1-0.1
			C22.5,40.8,22.5,40.8,22.4,40.8"/>
		<path class="st2" d="M23.6,41.3c-0.1,0.1-0.1,0.2-0.2,0.3c-0.1,0.2-0.1,0.3-0.1,0.4c0,0.1,0.1,0.2,0.2,0.2c0.1,0,0.2,0,0.3,0
			c0.1-0.1,0.1-0.2,0.2-0.4c0.1-0.2,0.1-0.3,0-0.4c0-0.1-0.1-0.2-0.2-0.2C23.7,41.2,23.6,41.2,23.6,41.3"/>
		<path class="st2" d="M25.2,41.7C25.2,41.7,25.2,41.7,25.2,41.7L25,42.1c0.1,0,0.2,0,0.2,0c0,0,0.1,0,0.1,0c0,0,0-0.1,0.1-0.1
			c0-0.1,0-0.1,0-0.2C25.3,41.7,25.3,41.7,25.2,41.7"/>
		<path class="st2" d="M47.3,41.7c0,0-0.1,0-0.2,0c0,0,0,0,0,0l0.1,0.4c0.1,0,0.2-0.1,0.2-0.1c0,0,0.1-0.1,0.1-0.1c0,0,0-0.1,0-0.1
			C47.4,41.8,47.4,41.7,47.3,41.7"/>
		<polygon class="st2" points="49.8,41.6 50.1,41.5 49.8,41.2 		"/>
		<path class="st2" d="M50.2,41.9L50.2,41.9c0-0.1,0-0.1,0.1-0.1c0,0,0,0,0,0c0,0,0,0,0,0l0,0l-0.1-0.1l-0.3,0.1l0,0.1
			c0,0,0,0.1,0,0.1c0,0,0,0,0,0.1c0,0,0.1,0,0.1,0l0,0.1l-0.4,0.1l0-0.1c0.1,0,0.1-0.1,0.1-0.3l0-1l0.1,0l0.7,0.7
			c0.1,0.1,0.1,0.1,0.2,0.1c0,0,0.1,0,0.1,0l0,0.1L50.2,41.9z M48.4,42.5L48.4,42.5l0.3-1.3l-0.2,0.1c-0.1,0-0.2,0.1-0.2,0.1
			c0,0,0,0.1,0,0.2l-0.1,0l-0.1-0.3l1-0.3l0,0.1l-0.3,1.2l0.3-0.1c0.1,0,0.1,0,0.2-0.1c0,0,0.1-0.1,0.1-0.1c0,0,0-0.1,0-0.2l0.1,0
			l0.1,0.3L48.4,42.5z M47.8,42.7c0,0-0.1-0.1-0.3-0.3c-0.1-0.1-0.1-0.1-0.1-0.1c0,0,0,0-0.1,0c0,0-0.1,0-0.1,0l0.1,0.3
			c0,0.1,0,0.1,0.1,0.1c0,0,0.1,0,0.1,0l0,0l0,0.1l-0.6,0.2l0-0.1l0,0c0.1,0,0.1,0,0.1-0.1c0,0,0-0.1,0-0.1l-0.2-0.7
			c0-0.1,0-0.1-0.1-0.1c0,0-0.1,0-0.1,0l0,0l0-0.1l0.5-0.1l0.1,0c0.1,0,0.2,0,0.2-0.1c0,0,0.1,0,0.2,0c0.1,0,0.1,0,0.1,0.1
			c0,0,0.1,0.1,0.1,0.1c0,0.1,0,0.3-0.2,0.3c0.1,0,0.1,0.1,0.3,0.2c0.1,0.1,0.2,0.1,0.2,0.2c0,0,0.1,0,0.1,0l0,0.1L47.8,42.7z
			 M45.6,43.2L45.6,43.2v-0.1c0.1,0,0.1,0,0.1-0.1c0,0,0-0.1,0-0.1l-0.2-0.7c0-0.1,0-0.1-0.1-0.1c0,0-0.1,0-0.1,0l0,0l0-0.1l1-0.2
			l0.1,0.3l-0.1,0c0,0-0.1-0.1-0.1-0.1c0,0-0.1,0-0.1,0c0,0-0.1,0-0.1,0l-0.2,0l0.1,0.4l0.1,0c0.1,0,0.1,0,0.1-0.1c0,0,0-0.1,0-0.1
			l0.1,0l0.1,0.4l-0.1,0c0,0,0,0,0,0c0,0,0-0.1,0-0.1c0,0-0.1,0-0.1,0l-0.1,0l0.1,0.3c0,0.1,0,0.1,0,0.1c0,0,0,0,0.1,0
			c0,0,0.1,0,0.1,0c0.1,0,0.1,0,0.2-0.1c0,0,0.1-0.1,0.1-0.1c0-0.1,0-0.1,0-0.2l0.1,0l0.1,0.4L45.6,43.2z M45.1,42.4l0.1,0.4
			c0,0.1,0,0.2,0,0.2c0,0.1,0,0.1,0,0.2c0,0.1-0.1,0.1-0.1,0.2c-0.1,0-0.1,0.1-0.2,0.1c-0.1,0-0.2,0-0.3,0c-0.1,0-0.1,0-0.2-0.1
			c0,0-0.1-0.1-0.1-0.1c0-0.1,0-0.1-0.1-0.2L44,42.5c0-0.1,0-0.1-0.1-0.1c0,0-0.1,0-0.1,0l0-0.1l0.6-0.1l0,0.1l0,0
			c-0.1,0-0.1,0-0.1,0.1c0,0,0,0.1,0,0.1l0.1,0.5c0,0.1,0,0.1,0.1,0.2c0,0,0.1,0.1,0.1,0.1c0.1,0,0.1,0,0.2,0c0.1,0,0.1,0,0.2-0.1
			c0,0,0.1-0.1,0.1-0.2c0-0.1,0-0.1,0-0.2l-0.1-0.4c0-0.1-0.1-0.2-0.2-0.1l0-0.1l0.4-0.1l0,0.1c0,0-0.1,0-0.1,0c0,0,0,0,0,0.1
			C45,42.3,45,42.3,45.1,42.4 M43.7,42.7c0-0.1-0.1-0.1-0.1-0.1c0,0-0.1,0-0.1-0.1c0,0-0.1,0-0.1,0l-0.2,0l0.1,0.4l0.1,0
			c0,0,0.1,0,0.1,0c0,0,0-0.1,0-0.1l0.1,0l0.1,0.4l-0.1,0c0-0.1,0-0.1-0.1-0.1c0,0-0.1,0-0.1,0l-0.1,0l0.1,0.3c0,0.1,0,0.1,0,0.1
			c0,0,0.1,0,0.1,0l0,0l0,0.1l-0.6,0.1l0-0.1l0,0c0.1,0,0.1,0,0.1,0c0,0,0-0.1,0-0.1l-0.1-0.7c0-0.1,0-0.1,0-0.1c0,0-0.1,0-0.1,0
			l0,0l0-0.1l1-0.2L43.7,42.7L43.7,42.7z M41.6,43.9L41.6,43.9c0-0.1,0.1-0.1,0.1-0.1c0,0,0,0,0,0c0,0,0,0,0-0.1l0,0l0-0.1l-0.4,0
			l0,0.1c0,0,0,0.1,0,0.1c0,0,0,0,0,0.1c0,0,0.1,0,0.1,0l0,0.1L41,44l0-0.1c0.1,0,0.1-0.1,0.2-0.2l0.3-1l0.1,0l0.5,0.9
			c0,0.1,0.1,0.1,0.1,0.2c0,0,0.1,0,0.1,0l0,0.1L41.6,43.9z M39.7,44.1L39.7,44.1l0-0.1c0.1,0,0.1,0,0.1,0c0,0,0-0.1,0-0.1l-0.1-0.7
			c0-0.1,0-0.1,0-0.1c0,0-0.1,0-0.1,0l0,0l0-0.1l0.6-0.1l0,0.1l0,0c-0.1,0-0.1,0-0.1,0c0,0,0,0.1,0,0.1l0.1,0.7c0,0.1,0,0.1,0,0.1
			c0,0,0,0,0.1,0c0,0,0.1,0,0.1,0c0.1,0,0.2,0,0.2-0.1c0-0.1,0.1-0.1,0.1-0.2l0.1,0l0,0.4L39.7,44.1z M38.7,44
			c-0.1,0.1-0.3,0.2-0.5,0.2c-0.1,0-0.3,0-0.4-0.1c-0.1-0.1-0.2-0.1-0.2-0.2c-0.1-0.1-0.1-0.2-0.1-0.3c0-0.1,0-0.2,0.1-0.3
			c0.1-0.1,0.1-0.2,0.2-0.2c0.1-0.1,0.2-0.1,0.3-0.1c0.2,0,0.4,0,0.5,0.2c0.1,0.1,0.2,0.3,0.2,0.4C38.9,43.7,38.8,43.8,38.7,44
			 M36.7,43.1C36.7,43.1,36.6,43.1,36.7,43.1c-0.1,0-0.1,0.1-0.1,0.1c0,0,0,0.1,0,0.1l0,0.9h-0.1l-0.8-0.9l0,0.6c0,0.1,0,0.1,0,0.2
			c0,0,0.1,0,0.1,0v0.1h-0.5v-0.1c0,0,0.1,0,0.1,0c0,0,0,0,0.1-0.1c0,0,0-0.1,0-0.1l0-0.6c0-0.1-0.1-0.2-0.2-0.2V43l0.4,0l0.7,0.7
			l0-0.4c0-0.1-0.1-0.2-0.2-0.2V43l0.4,0V43.1z M34.9,44c-0.1,0.1-0.3,0.2-0.5,0.2c-0.1,0-0.3,0-0.4-0.1c-0.1-0.1-0.2-0.1-0.2-0.3
			c0-0.1-0.1-0.2-0.1-0.3c0-0.1,0-0.2,0.1-0.3c0.1-0.1,0.1-0.2,0.3-0.2c0.1-0.1,0.2-0.1,0.3-0.1c0.2,0,0.4,0.1,0.5,0.2
			c0.1,0.1,0.2,0.3,0.2,0.5C35.1,43.8,35.1,43.9,34.9,44 M33.5,43l-0.8,1l0.3,0c0.1,0,0.1,0,0.2,0c0,0,0.1,0,0.1-0.1
			c0,0,0.1-0.1,0.1-0.2l0.1,0l0,0.4L32.3,44l0-0.1l0.7-1l-0.2,0c-0.1,0-0.2,0-0.3,0c0,0-0.1,0.1-0.1,0.2l-0.1,0l0-0.3L33.5,43
			L33.5,43z M32.2,44L31.6,44l0-0.1c0.1,0,0.1,0,0.1,0c0,0,0,0,0,0c0,0,0,0,0-0.1l0,0l0-0.1l-0.4,0l0,0.1c0,0,0,0.1,0,0.1
			c0,0,0,0,0,0.1c0,0,0.1,0,0.1,0l0,0.1l-0.4,0l0-0.1c0.1,0,0.1,0,0.2-0.2l0.5-0.9l0.1,0l0.3,1c0,0.1,0.1,0.2,0.1,0.2
			C32.1,43.9,32.2,43.9,32.2,44L32.2,44z M30.9,43.9l-0.4-0.1c0,0-0.1-0.2-0.2-0.3c0-0.1-0.1-0.1-0.1-0.2c0,0,0,0-0.1-0.1
			c0,0-0.1,0-0.1,0l0,0.3c0,0.1,0,0.1,0,0.1c0,0,0.1,0,0.1,0.1h0l0,0.1l-0.6-0.1l0-0.1l0,0c0.1,0,0.1,0,0.1,0c0,0,0-0.1,0-0.1
			l0.1-0.7c0-0.1,0-0.1,0-0.1c0,0-0.1,0-0.1,0l0,0l0-0.1l0.5,0.1l0.1,0c0.1,0,0.2,0,0.2,0c0,0,0.1,0,0.1,0.1c0,0,0.1,0.1,0.1,0.1
			c0,0.1,0,0.1,0,0.2c0,0.1-0.1,0.2-0.3,0.3c0,0,0.1,0.1,0.2,0.3c0.1,0.1,0.1,0.2,0.1,0.2c0,0,0.1,0,0.1,0L30.9,43.9z M28.8,43.6
			l-0.6-0.1l0-0.1c0,0,0.1,0,0.1,0c0,0,0,0,0,0c0,0,0,0,0-0.1l0,0l0-0.1L28,43.1l0,0.1c0,0,0,0.1,0,0.1c0,0,0,0,0,0.1
			c0,0,0.1,0,0.1,0l0,0.1l-0.4-0.1l0-0.1c0.1,0,0.1,0,0.2-0.2l0.5-0.9l0.1,0l0.2,1c0,0.1,0,0.2,0.1,0.2
			C28.8,43.5,28.8,43.5,28.8,43.6L28.8,43.6z M27.5,43.4l-1.1-0.2l0-0.1h0c0.1,0,0.1,0,0.1,0c0,0,0-0.1,0-0.1l0.2-0.7
			c0-0.1,0-0.1,0-0.1c0,0-0.1,0-0.1-0.1l0,0l0-0.1l0.6,0.1l0,0.1l0,0c-0.1,0-0.1,0-0.1,0c0,0,0,0-0.1,0.1L27,43c0,0.1,0,0.1,0,0.1
			c0,0,0,0,0,0c0,0,0.1,0,0.1,0c0.1,0,0.2,0,0.2,0c0.1,0,0.1-0.1,0.1-0.2l0.1,0L27.5,43.4z M25.5,42.6c0,0.1,0.1,0.2,0.1,0.2
			c0,0,0.1,0.1,0.1,0.1l0,0.1l-0.4-0.1c0,0-0.1-0.2-0.1-0.3c0-0.1,0-0.2-0.1-0.2c0,0,0,0,0-0.1c0,0-0.1,0-0.1,0l-0.1,0.3
			c0,0.1,0,0.1,0,0.1c0,0,0,0,0.1,0.1l0,0l0,0.1l-0.6-0.2l0-0.1l0,0c0.1,0,0.1,0,0.1,0c0,0,0,0,0.1-0.1l0.2-0.7c0-0.1,0-0.1,0-0.1
			c0,0,0,0-0.1-0.1l0,0l0-0.1l0.5,0.1l0.1,0c0.1,0,0.2,0,0.2,0.1c0,0,0.1,0.1,0.1,0.1c0,0,0.1,0.1,0.1,0.1c0,0.1,0,0.1,0,0.2
			c0,0.1-0.1,0.2-0.3,0.2C25.4,42.3,25.5,42.4,25.5,42.6 M24.3,42c-0.1,0.2-0.2,0.3-0.3,0.4c-0.2,0.1-0.3,0.1-0.5,0
			c-0.1,0-0.2-0.1-0.3-0.2C23.1,42.1,23,42,23,41.9c0-0.1,0-0.2,0-0.3c0-0.1,0.1-0.2,0.2-0.3c0.1-0.1,0.2-0.1,0.3-0.1
			c0.1,0,0.2,0,0.3,0c0.2,0.1,0.3,0.2,0.4,0.3C24.4,41.6,24.4,41.8,24.3,42 M22.9,41.2c0,0.1-0.1,0.1-0.1,0.2c-0.1,0-0.1,0-0.2,0
			c-0.1,0-0.2,0-0.3-0.1l-0.1,0l-0.1,0.3c0,0.1,0,0.1,0,0.1c0,0,0,0.1,0.1,0.1l0,0l0,0.1l-0.6-0.2l0-0.1l0,0c0.1,0,0.1,0,0.1,0
			c0,0,0,0,0.1-0.1l0.2-0.7c0,0,0-0.1,0-0.1c0,0,0,0-0.1-0.1l0,0l0-0.1l0.5,0.2c0.1,0,0.2,0.1,0.3,0.1c0.1,0,0.1,0.1,0.2,0.1
			c0,0.1,0.1,0.1,0.1,0.2C22.9,41.1,22.9,41.2,22.9,41.2 M34.4,42.6l0.4,0l-0.4,0.3h-0.1L34.4,42.6z M50.5,39.9c-0.2,0-0.3,0-0.3,0
			c-0.6,0.1-5.7,2.4-14.1,2.4c-8.5,0-13.6-2.3-14.1-2.4c0,0-0.1,0-0.3,0c-0.2,0-0.3,0-0.4,0.1l-1.7,1.4h0c0.5,0,1.1,0.3,1.1,0.3
			c4.5,2,9.7,2.8,15.5,2.8c5.8-0.1,11-0.9,15.5-2.8c0,0,0.6-0.3,1.1-0.3h0L50.9,40C50.8,39.9,50.7,39.9,50.5,39.9"/>
		<path class="st2" d="M30,22.8c-0.1,0.1-0.4,0.3-0.6,0.4h1.3C30.4,23.1,30.2,22.9,30,22.8"/>
		<path class="st2" d="M38.5,23.2c-0.2-0.1-0.4-0.2-0.5-0.3c0,0-0.1,0-0.1,0c-0.2-0.1-0.5-0.2-0.7-0.2h-2.7
			c-0.2,0.1-0.5,0.1-0.7,0.2c0,0,0,0-0.1,0c-0.1,0.1-0.3,0.2-0.5,0.3c0,0,0,0-0.1,0L38.5,23.2C38.6,23.2,38.5,23.2,38.5,23.2"/>
		<path class="st2" d="M42,22.8C42,22.8,42,22.8,42,22.8C42,22.8,42,22.8,42,22.8c-0.2,0.1-0.3,0.2-0.6,0.4h1.1
			C42.3,23.1,42.1,22.9,42,22.8"/>
		<path class="st2" d="M29.3,33.7v-2.8C29.1,31.4,28.8,32.6,29.3,33.7"/>
		<path class="st2" d="M35.9,23.6h-7c0,0,0,0,0,0c0,0.1,0,0.1,0.1,0.2c0,0,0.1,0.2,0.3,0.4h6.4L35.9,23.6z"/>
		<path class="st2" d="M35.6,24.5h-6.1c0.1,0.2,0.2,0.3,0.3,0.6h5.6L35.6,24.5z"/>
		<path class="st2" d="M35.1,26l0.2-0.6H30c0.1,0.2,0.1,0.4,0.2,0.6H35.1z"/>
		<path class="st2" d="M35,26.4h-4.8c0,0.2,0.1,0.4,0.1,0.6h4.5L35,26.4z"/>
		<path class="st2" d="M30.2,28.8h2.5L32,28.2h-1.6C30.3,28.4,30.3,28.6,30.2,28.8"/>
		<path class="st2" d="M30.4,27.3C30.4,27.3,30.4,27.3,30.4,27.3c0,0.1,0,0.3,0,0.6h1.1l-0.8-0.6H30.4z"/>
		<path class="st2" d="M38.6,29.7H39v3.5l-0.4-1.1V29.7z M35.9,29l3.1,4.4v2.2c0.2,0,0.4,0,0.4,0c0,0,0.1,0,0.1,0v-5.8h0.4v5.8
			c0.2,0,0.4,0,0.6-0.1v-5.7h0.4v5.6c0.2-0.1,0.4-0.1,0.6-0.2v-5.4h0.4v5.2c0.2-0.1,0.4-0.3,0.5-0.4c0,0,0,0,0-0.1v-3.8
			c-0.2-0.3-0.3-0.6-0.4-0.9h0c-0.1-0.2-0.2-0.4-0.2-0.6h-3.2l-0.7,0.5l-1.4-0.5L35.9,29l5.2-1.7H37l-0.1-0.4h4.6
			c0-0.2,0.1-0.4,0.1-0.6h-4.9L36.6,26h5.1c0.1-0.2,0.1-0.4,0.2-0.6h-5.5l-0.1-0.4h5.7c0.1-0.2,0.2-0.4,0.3-0.6h-6.2l-0.1-0.4h6.6
			c0.2-0.3,0.3-0.4,0.4-0.5c0,0,0-0.1,0-0.1h-7.2l0-0.1v0.1v0.6v0.4v0.6v0.4V26v0.4v0.6V29L35.9,29z"/>
		<path class="st2" d="M37.1,36.2c0.2-0.1,0.4-0.2,0.6-0.3v-3.5L37.1,32V36.2z"/>
		<path class="st2" d="M36.2,37.3c0.1-0.1,0.2-0.3,0.2-0.3l0,0c0.1-0.2,0.2-0.3,0.3-0.4v-4.8l-0.6-0.4V37.3z"/>
		<path class="st2" d="M35.3,36.4c0.2,0.2,0.3,0.3,0.5,0.6l0,0c0,0,0,0.1,0.1,0.1v-6l-0.6,0.4V36.4z"/>
		<path class="st2" d="M34.3,35.8c0.2,0.1,0.4,0.2,0.6,0.3v-4.3l-0.6,0.4V35.8z"/>
		<path class="st2" d="M38.1,35.7c0.2-0.1,0.4-0.1,0.6-0.1v-2.5l-0.6-0.4V35.7z"/>
		<path class="st2" d="M33.4,35.6c0.2,0,0.4,0.1,0.6,0.1v-3.2l-0.6,0.4V35.6z"/>
		<path class="st2" d="M33,29.7h0.4v1.6L33,32.5V29.7z M30.3,34.8v-5.1h0.4V35c0.2,0.1,0.3,0.2,0.6,0.2v-5.6h0.4v5.7
			c0.2,0,0.4,0.1,0.6,0.1v-5.8h0.4v5.8c0.1,0,0.2,0,0.2,0c0,0,0.2,0,0.3,0v-2.4l-0.3,0.2l3.2-4.4h0l0,0h0h0l-1.1-1.7h-4.1l5.2,1.7
			L34,29.7l-0.7-0.5h-3.2c-0.1,0.2-0.1,0.4-0.2,0.6c-0.1,0.1-0.1,0.3-0.2,0.4v4.1C29.8,34.4,30,34.6,30.3,34.8"/>
		<path class="st2" d="M39,28.8h2.6c-0.1-0.2-0.1-0.4-0.1-0.6h-1.7L39,28.8z"/>
		<path class="st2" d="M41.5,27.3h-0.4l-0.8,0.6h1.1c0-0.2,0-0.3,0-0.4C41.5,27.4,41.5,27.4,41.5,27.3"/>
		<path class="st2" d="M27.9,12c0.8-0.3,1.6,0,2,0.4c1.3,1.3,0.6,3.1,0.2,3.2c0.3-0.7,0.4-1.9-0.8-2.2c-0.9-0.2-1.7,0.5-2.2,0.8
			c0.3-0.8,1.2-1.5,2.4-1.2c-0.3-0.7-1.2-1-2.2-0.4c-0.3,0.1-0.4,0.3-0.6,0.4C27,12.6,27.4,12.2,27.9,12 M27.8,16.2
			c0.6-0.2,1.2-0.5,1-1.1c0-0.2-0.2-0.3-0.4-0.3c-0.4,0-0.6,0.2-0.8,0.5c0-0.6,0.4-0.9,1-0.9c0.3,0,0.7,0.3,0.8,0.6
			C29.6,15.9,28.8,16.3,27.8,16.2 M32.1,14.1c0.5,0.8,1.9,1.9,3.6,2.4c0.6,0.2,0.9,2,0.4,2.9c-0.5,0-0.6-0.4-0.7-0.8
			c0.2,0.2,0.6,0.4,0.5,0c-0.2-0.2-1.4-0.5-1.1-1c0.2-0.3,0.8,0.9,1,0.5c0.1-0.8-2.3-1-2.2-1.7c0-0.4,1.9,0.9,2.2,0.9
			c0-0.4-2.8-1.5-3.7-3.1C32.1,14.2,32.1,14.1,32.1,14.1C32.1,14.1,32.1,14.1,32.1,14.1 M36.9,17.6c0.1,0.7,0.2,1.6-0.1,2.3
			c-0.2-0.1-0.1-0.4-0.1-0.5c0-0.8,0-1.6-0.2-2.2c-0.1-0.3-0.4-1.4-1.1-2.7C35.7,14.7,36.7,16.4,36.9,17.6 M37.6,15.1
			c0.5,0.2-0.3,1.2-0.3,1.4c0.1-0.1,0.5-0.5,0.7-0.4c0.3,0.2-0.5,1.3-0.8,1.3C36.1,16.1,37.6,15.6,37.6,15.1 M39.2,9.4
			c0,0.6-0.3,0.8-0.3,0.7c0,0,0,0,0-0.1c0.2-0.4,0.1-1-0.2-1.4C38.4,8.5,38,8.3,38,8.3C37.9,8.3,39,8.5,39.2,9.4 M37.3,18.4
			c-0.2-0.4,0.4-0.9,0.5-1.2C38.5,17.1,37.6,18.3,37.3,18.4 M37.5,19.5c-0.2-0.1-0.2-0.4-0.1-0.5c0.1-0.4,0.5-0.5,0.7-0.7
			C38.1,18.2,38,18.8,37.5,19.5 M44.4,11.4c0.4,0.1,0.7,0.5,0.9,1c0.2,0.4,0.1,0.9,0,1.1c0,0,0,0,0,0c0,0,0,0,0,0c0-0.3,0-0.7-0.2-1
			c-0.1-0.2-0.3-0.5-0.5-0.6c0.2,0.2,0.3,0.4,0.4,0.6c0.1,0.2,0.1,0.4,0.1,0.5c0,0.5-0.2,1.1-0.5,1.3c0,0,0,0,0,0c0,0,0,0,0,0
			c0.3-0.6,0.3-1.2,0.1-1.6c0,0,0-0.1-0.1-0.2c-0.2-0.3-0.5-0.7-1-0.7c0.2,0.2,0.4,0.4,0.6,0.7c0.3,0.6,0.2,1.4-0.1,1.7c0,0,0,0,0,0
			c0,0,0,0,0,0c0-0.1,0-0.2,0-0.3c0-0.2,0-0.4,0-0.7c-0.3-1.1-1.2-1.5-1.9-0.9C42,12.2,42.7,10.9,44.4,11.4 M27,16.7
			c1,0.6,2.3,0.5,2.8,0.4c0.3-0.1,0.5-0.1,0.8-0.3c0,0,0.1,0,0.1-0.1c0,0,0,0,0,0c0.4-0.4,0.7-0.9,0.6-1.6c0,0,0,0,0,0
			c0,0,0.1,0.2,0.1,0.4c0,0.3-0.1,0.6-0.2,0.9c0,0,0,0.1,0,0.1c0,0.1,0.1,0.2,0.1,0.3c0.2,0.2,0.7,0.3,1.1,0.1c0,0,0,0,0,0
			c0,0.1-0.3,0.3-0.7,0.3c-0.1,0-0.2,0-0.3,0c0.3,0.4,1,0.7,1.7,0.7c0,0,0,0,0,0c0,0-0.2,0.1-0.4,0.1c-0.3,0-0.8-0.1-1.1-0.2
			c0.4,0.4,1,0.8,2,1c0,0.1-0.8,0-1-0.1c0.5,1.9,1.5,1.7,1.5,1.8C34,20.6,33.7,21,34,21.4C35,21,35.8,21,36.1,21
			c0.2,0,1.1,0,2.2,0.4c0.1-0.2,0.1-0.3,0.1-0.5c-0.2-0.5-1.6-0.8-3-0.4c-0.1,0-0.1,0.1-0.2,0.1c0,0,0,0,0,0c0,0,0,0,0,0l0,0
			c0,0,0.2-0.1,0.2-0.1c0.6-0.3,1.8-0.4,2.5-0.1c0,0,0,0,0,0c0.6,0.3,1.1-0.5,0.9-0.8c0.4,0,0.8-0.2,0.8-0.7c-0.1,0-0.2,0.1-0.2,0.1
			l0,0C39.2,19,39,19,39,19c0,0,0,0,0,0h0c0,0,0,0,0,0c0,0,0,0,0,0c0.1,0,0.1-0.1,0.2-0.1c0.8-0.5,1.2-1.4,1.1-1.6
			c-0.1,0.2-0.3,0.3-0.6,0.3c-0.1,0-0.2,0-0.2,0c0,0,0,0,0,0c0.1,0,0.2-0.1,0.3-0.1c0.3-0.2,0.5-0.6,0.7-0.9c-0.5-0.5-0.7-1-1-1.8
			c-0.1-0.3-0.3-0.6-0.7-0.6c0,0-0.1,0-0.1,0c0,0-0.1,0-0.1,0c0,0,0,0,0,0c0.4-0.3,0.8,0,1,0.2c0-0.7,0.3-0.9,0.3-0.9c0,0,0,0,0,0
			c-0.5,1.4,0.5,2.8,1.2,3.2c1,0.5,2.8,0.6,4-0.4h0c-0.2,0.1-0.4,0.1-0.7,0.1c-0.2,0-0.4-0.1-0.4-0.1c0,0,0,0,0,0c0.2,0,0.3,0,0.5,0
			c1.7-0.5,1.8-2.6,1.5-2.7c0,0,0,0,0,0c0,0.1-0.1,0.3-0.1,0.4c-0.1,0.2-0.2,0.4-0.3,0.3c0,0,0,0,0-0.1c0.4-0.7,0.4-1.2,0.2-1.8
			c-0.1-0.3-0.3-0.7-0.7-0.9c-0.9-0.6-2.6-0.7-3.6,0c-0.3-0.3-0.8-0.6-1.2-0.8c-0.1,0.5-0.7,1.3-1.2,1.6c-0.1,0.1-0.4,0.3-0.5,0.3
			c0,0-0.1,0,0-0.1c0.9-0.6,1.4-1.3,1.4-2.2v0c0-0.4-0.1-1.3-0.7-1.9c-0.8-0.9-3.1-1-4.2-0.2c-0.3,0.3-0.5,0.6-0.5,1.1
			c0.1-0.3,0.4-0.6,0.8-0.8c0.5-0.1,1.4,0,1.5,0.5c-0.8-0.8-2.2-0.2-2.4,1.2v0c0,0.1-0.1,0.1-0.1,0.1h0c0,0-0.1,0-0.1-0.6
			c0-0.4,0.1-0.9,0.3-1.3c-1.8-0.3-3.9,0.5-3.8,3.2c0,0.4,0.2,0.7,0.5,1.1c0.1,0.1,0,0.1,0,0.1c-0.1,0-0.3-0.1-0.4-0.3
			c-0.2-0.2-0.3-0.6-0.4-0.9c-1.1-0.4-1.8-0.4-2.4-0.3c-0.6,0.1-1.5,0.6-1.8,1c-0.1,0.2-0.3,0.4-0.4,0.6c-0.2,0.4-0.4,1-0.3,1.6
			C25.7,15.5,26.2,16.3,27,16.7"/>
		<path class="st2" d="M16.8,41.8C16.8,41.8,16.8,41.8,16.8,41.8c-0.2-0.1-0.3-0.2-0.4-0.2c-0.1,0.2,0.1,0.3,0.2,0.5
			c0,0.1-0.1,0.1-0.1,0.1l0,0c-0.1,0-0.2,0-0.2,0h0c0,0,0,0,0,0C16.1,42,16,41.7,16,41.5c0-0.1-0.1-0.4-0.4-0.6
			c0.4-0.3,1,0.4,1.1,0.5l0,0h0v0c0.1,0.1,0.2,0.1,0.3,0.2c0,0,0.1,0.1,0.1,0.1C17.1,41.8,17,41.8,16.8,41.8 M21.7,20.2
			c1,0.1,1.9,0.1,2.6,0.4c0,0,0.1,0,0.1,0c0.2,0.1,0.7,0.5,0.9,1.3c-0.8-0.5-1.1-0.6-1.8-0.9C22.8,20.8,22,20.7,21.7,20.2
			 M20.6,18.4c0.6,0.2,0.7-0.6,0.8-0.4C21.6,18.4,21,18.9,20.6,18.4 M20,18.5c-0.2-0.5,0.6-1.2,0.8-1.3c0.5-0.2,0.8,0.1,1.3,0.2
			c0.3,0,0.6,0,0.9,0c0.6,0,0.4,0.5,0.3,0.5c-0.5,0.1-0.7-0.2-1.1-0.3c-0.3,0-0.6,0.1-0.9,0.1c-0.3,0-0.4-0.2-0.7,0
			c0,0-0.3,0.3-0.3,0.6C20.4,18.5,20.1,18.6,20,18.5 M28.5,26.9c-0.2,0-0.2-0.8-1.3-0.6c-0.6,0.2-1,0.1-1.3-0.1
			C27.4,25.4,28.6,26.2,28.5,26.9 M28.7,28.3c0.1,0.1,0.2,0.4,0.3,0.8c0,0,0,0.1,0,0.1c0,0,0,0.1,0,0.1c0,0,0,0.1,0,0.1
			c0,0,0,0.1,0,0.1v0.1c0,0.1,0,0.1,0,0.2c0,0,0,0.1,0,0.1c0,0,0,0.1,0,0.1c0,0,0,0.1,0,0.1c0,0.1,0,0.1,0,0.2c0,0,0,0.1,0,0.1
			c0,0,0,0.1,0,0.1c0,0,0,0.1,0,0.1c0,0,0,0.1,0,0.1c0,0.1,0,0.1,0,0.2c0,0,0,0.1,0,0.1c0,0,0,0.1,0,0.1c0,0,0,0.1,0,0.1
			c0,0,0,0.1-0.1,0.1c0,0,0,0,0,0.1c0,0,0,0.1-0.1,0.1c0,0,0,0,0,0.1c0,0-0.1,0.1-0.1,0.1c0,0,0,0,0,0c0,0-0.1,0.1-0.1,0.1
			c0,0,0,0,0,0c0,0-0.1,0.1-0.1,0.1c0,0,0,0,0,0c0,0-0.1,0-0.1,0c0,0,0,0,0,0c-0.1,0-0.1,0-0.2,0c0,0,0-0.1,0-0.1
			c0-0.2,0.2-0.3,0.2-0.5c0.1-0.2,0.1-0.3,0.1-0.4c0.2,0,0.3,0,0.3-0.1c-0.2-0.2-0.3-0.6,0.1-0.9C29,29.4,28.6,28.5,28.7,28.3
			 M29.3,30.5c1-1.7,0.9-2.9,0.9-3.1c0-1.9-1.2-3.3-1.3-3.4c-0.1-0.2-0.1-0.3-0.1-0.4c0-0.2,0.2-0.3,0.2-0.3
			c0.3-0.2,0.8-0.5,1.1-0.7l0.1-0.1c0,0,0.1,0,0.1,0c0.1,0,0.1,0,0.2,0.1c0.2,0.2,0.7,0.5,1.4,0.5c0.1,0,0.3,0,0.4,0
			c0.4-0.1,1-0.4,1-0.4c0.2-0.1,0.4-0.2,0.6-0.3l0.1,0c1.1-0.4,2-0.5,2.2-0.5c0.2,0,1.1,0,2.2,0.5l0.1,0c0.1,0,0.4,0.2,0.6,0.3
			c0,0,0.7,0.3,1,0.4c0.1,0,0.3,0,0.4,0c0.8,0,1.2-0.3,1.4-0.5c0.1-0.1,0.2-0.1,0.2-0.1c0,0,0.1,0,0.1,0c0,0,0,0,0.1,0.1
			c0.3,0.2,0.8,0.5,1.1,0.7c0,0,0.1,0.1,0.2,0.3c0,0.1,0,0.2-0.1,0.4c-0.1,0.2-1.3,1.6-1.3,3.4c0,0.2-0.1,1.4,0.9,3.1
			c0,0.1,1.1,2-0.1,3.7c-0.1,0.2-1,1.6-3.4,1.6c-0.2,0-2.1,0-2.8,1.3c0,0,0,0,0,0.1c-0.1,0.1-0.3,0.5-0.4,0.7c0,0-0.1,0.1-0.1,0.1
			c0,0-0.1,0-0.1-0.1c-0.1-0.2-0.3-0.6-0.4-0.7c0,0,0-0.1,0-0.1c-0.7-1.2-2.6-1.3-2.8-1.3c-2.4,0-3.3-1.4-3.4-1.6
			C28.1,32.4,29.2,30.5,29.3,30.5 M43.1,29.2C43.2,29.2,43.2,29.2,43.1,29.2c0.1-0.1,0.2-0.1,0.4-0.2c0.1,0,0.1,0,0.2,0h0
			c0.1,0,0.1,0,0.2,0c0,0,0.2,0.3,0.3,0.5h0c0,0.1,0.1,0.5,0.3,0.6c0.1,0.1,0.1,0.4-0.3,0.4h0c-0.4-0.1-0.8-0.6-0.6-1.2
			c-0.1,0-0.2,0-0.3,0h0c0,0-0.1,0-0.1,0c0,0,0,0,0,0c0,0,0,0-0.1,0c0,0,0,0-0.1,0c-0.1,0.1-0.1,0.2-0.2,0.2
			C42.8,29.5,43,29.3,43.1,29.2 M44.6,30.9C44.6,30.9,44.6,30.9,44.6,30.9C44.6,31,44.6,31,44.6,30.9c0,0.1,0,0.1,0,0.1c0,0,0,0,0,0
			c0,0,0,0.1,0,0.1v0c0,0.1,0,0.3,0,0.4c0,0,0,0,0,0.1c0,0,0,0,0,0c0,0.1,0,0.2,0,0.3c0,0.2,0,0.5-0.1,0.7c0,0,0,0.1-0.1,0.1
			c0,0,0,0-0.1,0.1c0,0,0,0,0,0c0,0,0,0-0.1,0c0,0,0,0,0,0c0,0,0,0-0.1,0c0,0,0,0,0,0c0,0,0,0-0.1,0h0c0,0,0,0-0.1,0c0,0,0,0,0,0
			c0,0,0,0-0.1,0c0,0,0,0,0,0c0,0-0.1,0-0.1-0.1c0,0,0,0,0,0c0,0-0.2-0.3,0.1-0.3c0,0,0.1,0.1,0.1,0.1c0,0,0,0,0,0c0,0,0,0,0.1,0
			c0,0,0,0,0,0c0,0,0,0,0.1,0c0,0,0,0,0,0c0,0,0,0,0,0c0,0,0,0,0,0c0,0,0,0,0,0c0,0,0,0,0,0c0,0,0-0.1,0-0.1c0,0,0,0,0,0
			c0,0,0-0.1,0-0.1c0,0,0,0,0-0.1c0,0,0,0,0-0.1c0-0.4,0-1,0.1-1.2c0,0,0,0,0,0c0,0,0,0,0,0C44.5,30.9,44.5,30.9,44.6,30.9
			L44.6,30.9L44.6,30.9C44.5,30.9,44.6,30.9,44.6,30.9C44.6,30.9,44.6,30.9,44.6,30.9 M47.8,33.2c0.6,0.2,1.4,0.1,1.8-0.2
			c0,0,0.1,0,0.1,0c0.1,0.1,0,0.5-0.7,0.6c-1.3,0.1-2.1-1-2-1C47,32.6,47.4,33,47.8,33.2 M46.7,22.1c-0.2,0.3-0.4,0.7-0.8,0.8
			c-0.7,0.2-1.4-0.4-1.4-0.5c0-0.1,0.6,0.3,1.2,0.2C46.1,22.6,46.4,22.3,46.7,22.1C46.7,22,46.7,22.1,46.7,22.1 M44,18.7
			C44,18.7,43.9,18.7,44,18.7c-0.5-0.2-1.3-0.2-1.9,0.1c-0.4,0.2-0.7,0.6-0.8,0.7c-0.1,0,0.7-1.1,1.9-1.2C44,18.2,44.1,18.6,44,18.7
			 M53,22.4c0.2,0,0.3-0.1,0.5-0.1c0.2-0.1,0.3-0.2,0.4-0.2c0.1,0.1-0.1,0.1-0.1,0.2c-0.2,0.1-0.6,0.3-0.8,0.4
			c-0.5,0.1-1-0.1-1.2-0.4C52.2,22.2,52.5,22.4,53,22.4 M54.5,20.3c0.1-0.4,0.7-1,0.7-1.2c0-0.3-0.3-0.6-0.3-1c-0.1-0.6,0.4-1.1,1-1
			c0.4,0.1,0.6,0.4,0.8,0.7c0.1,0.1,0.2,0.2,0.3,0.3c0.7,0.8,1.2,2.3,1.5,3.4c0.9,3.4,1.4,8.9,0.3,14.8c-0.1,0.5-0.4,1.8-0.4,1.7
			c1.1-9.9,0.5-12.3,0.3-12.3c-0.2,0.1-0.3,1.2-0.9,0.9c-0.5-0.3,1.2-2.5,0.5-3.7c-0.2-0.2-0.3,0.3-0.6,0.2
			c-0.7-0.2,0.4-2.1,0.2-2.3c-0.2-0.1-0.7-0.3-0.7-1c0-0.3,0.2-0.6,0-0.8c-0.2-0.2-0.2,0.2-0.4,0.1c-0.3-0.4,0-0.8-0.2-1
			c-0.1-0.1-0.3,0.2-0.5,0.1c-0.2-0.2,0.1-0.5-0.1-0.6c-0.3,0-0.8,0.4-0.7,0.9c0.1,0.3,0.4,0.5,0.4,0.8c0,0.3-0.3,0.6-0.4,0.7
			c-0.5,1.1,0.3,1.3,0.2,1.7c0,0.2-0.4,0.3-0.6,0.2C54.4,21.6,54.4,20.7,54.5,20.3 M48.4,38.6L48.4,38.6
			C48.4,38.6,48.4,38.7,48.4,38.6c-0.3,0.1-0.9-0.3-0.9-0.3c-0.1-0.1-0.3-0.2-0.6-0.1h0l0,0c-0.2,0.1-0.3,0.4-0.5,0.5
			c0,0,0-0.1,0-0.1c0,0,0,0,0,0c0,0,0-0.1,0-0.1v0c0,0,0-0.1,0-0.1c0,0,0,0,0,0c0,0,0-0.1,0.1-0.1c0,0,0,0,0-0.1c0,0,0,0,0,0
			c0,0,0,0,0.1-0.1c0,0,0,0,0,0c0.1-0.1,0.3-0.1,0.5-0.1l0,0c0.2,0,0.5,0.1,0.6,0.2c0.2,0.2,0.6,0.2,0.9,0.2
			C48.6,38.3,48.4,38.5,48.4,38.6 M25.9,37.3C25.9,37.3,25.9,37.4,25.9,37.3C25.9,37.4,25.9,37.4,25.9,37.3
			c-0.1,0.1-0.1,0.1-0.1,0.1c-0.1,0-0.1,0-0.2,0c-0.1,0-0.3,0-0.4,0c0,0.1,0,0.2,0.1,0.2v0c0,0,0,0,0,0c0,0,0.1,0,0.1,0.1
			c0.1,0,0.1,0.1,0.2,0.1c0,0.1-0.2,0.2-0.3,0.2c-0.2,0-0.4-0.3-0.5-0.4c0,0,0,0-0.1,0c0,0,0,0-0.1,0c-0.2-0.1-0.5-0.2-0.8-0.2
			c0.1-0.5,1.5-0.2,1.6-0.2C25.6,37.2,25.8,37.2,25.9,37.3C25.9,37.3,25.9,37.3,25.9,37.3 M32.8,45.4c0,0-0.7-0.2-1.7,0.4
			c0,0-0.8,0.6-1,0.6c0,0,0.2-0.9,0.3-1.9c-0.2,0-0.3,0-0.5-0.1c-0.1,1-0.3,2-0.7,2.1l-0.5,0.1c0-0.1-0.1-0.1-0.1-0.2
			c-0.1-0.1-0.3-0.3-0.6-0.2c0,0,0,0-0.1,0c-0.2,0.1-0.4,0.3-0.5,0.5c-0.1,0-1,0.2-1.5-0.2c0,0,0.9-0.3,1-0.6c0,0,0.3-0.5-0.6-1
			c0,0-0.7-0.4-0.8,0c0,0-0.1,0.2,0.2,0.4c0,0,0.3,0.3-0.3,0.3c0,0-0.4,0-0.6-0.2c0,0,0.1-1.1,0.4-1.9c-0.2-0.1-0.5-0.1-0.7-0.2
			c-0.1,0.3-0.2,0.5-0.3,0.8c0,0,0,0.7-0.3,0.8c0,0-0.9-0.7-0.5-1.9c-0.3-0.1-0.5-0.2-0.8-0.3c0,0.6,0.1,1.6,0.9,2.9
			c0,0-0.7,0.9-1.4,0.4c0,0-1-0.7-0.4-1.3c0,0,0.4-0.4,0.6,0.1c-0.2,0-0.4,0.2-0.4,0.4c0,0.2,0.2,0.4,0.4,0.4c0.2,0,0.4-0.2,0.4-0.4
			c0-0.2,0-0.6-0.4-0.9c0,0-0.4-0.4-1-0.3c0,0,0.6-0.8,0.6-1.4c0,0,0-0.1,0-0.2c-0.2-0.1-0.3-0.1-0.5-0.2c0,0.6-0.2,1.8-1.1,1.5
			c0,0,0.5-0.9,0.9-1.5c-0.3-0.1-0.7-0.3-1-0.4c0,0-0.1,0-0.1,0c0.1,0.3,0.1,0.9-0.2,1.3c0,0-0.4,0.4-1.2-0.2c0,0,1-0.8,1.3-1.1
			c-0.2-0.1-0.5-0.2-0.8-0.2h-0.3c0,0,0,0-0.1,0c0,0-0.6,0.5-1.1,0.7c0,0-0.1,0.1-0.3-0.1c0,0-0.8-0.9-0.2-1.9c0,0,0.4-0.9,1.1-0.7
			c0,0,0.2,0,0.4,0.3c0,0-0.7,0-0.7,0.6c0,0,0,0.5,0.7,0.5c0,0,0.9-0.1,0.7-1.2c0,0-0.2-0.7-0.7-0.7c0,0,0.3-0.4,0.1-0.5
			c0,0-0.2-0.2-0.7,0.1c0,0-0.1,0.2-0.7,0.1c0,0-0.4-0.2-0.6,0.1c0,0-0.1,0-0.1,0.5c0,0,0,0.2-0.2,0.6c0,0-0.2,0.3-0.2,0.8
			c-0.2-0.1-0.4-0.3-0.6-0.3c-0.3-0.3-0.3-1.8-0.7-2.5c-0.1-0.2,0.1-0.9,0.2-1.7c2.3-0.5,3.1-2.2,3.3-3c0.3-1.2-0.1-2.5-0.2-2.9
			c0,0,0,0,0.1,0c0.1,0.2,0.2,0.4,0.2,0.6c1.1,0.1,1.8-0.1,2.4-0.3c0,0,0.1,0,0.1,0c0,0,0.1,0,0.1,0c0.1,0,0.2-0.1,0.3-0.1
			c0,0,0.1,0,0.1,0c1.6-0.8,2.3-2.1,2.7-2.9c-0.2,0-0.9-0.3-1.1-0.6c0.6,0,1,0.3,1.6,0.3c0.9,0,1.4-0.5,2.4-0.4
			c0,0.1,0.1,0.4,0.7,0.7c0,0.5,0.1,1,0.2,1.4c0,0.1,0.1,0.2,0.1,0.2s-0.7,0.5-0.5,1c0,0.1,0.1,0.2,0.1,0.4c0,0-0.1,0-0.1,0
			c-0.1,0-0.2,0.1-0.4,0.4c-0.1,0.1-0.5,0.9-0.2,1c0.1,0,0.1,0,0.2,0c-0.1,0.8-0.1,1.8,0.5,2.8l0,0c0,0.1,1.1,1.7,3.8,1.7h0
			c0.3,0,2.7,0,3.5,1.7c0,0.1,0.2,0.4,0.4,0.4c0.2,0,0.4-0.3,0.5-0.4c0.9-1.6,3.3-1.7,3.5-1.7h0c2.7,0,3.8-1.7,3.8-1.7l0,0
			c0.3-0.5,0.5-1,0.6-1.5c0.5-0.3,0.5-1.5,0.5-1.7c0.2,0.2,0.5,0.8,1.1,1c-0.1,0.6-0.1,1.5,0.5,1.6c0.2,0,0.3-0.3,0.3-0.5
			c0.5,1.5,0.1,2.4,0.5,2.6c0.5,0,0.5-0.9,0.6-0.9c0,0.1,0.2,0.4,0.2,0.8c0,0.5-0.1,0.9,0.1,1c0.7,0.1,0.4-2,0.9-1.7
			c-0.1,0.9,0,1.4,0.4,1.6c0,0.4-0.1,0.8-0.2,0.8c-1,0.2-1.9-0.6-2.8-0.3c-0.1,0-0.1-0.1-0.1-0.1c-1.6-0.9-2.7-0.2-2.8-0.3
			c-0.5-0.4-0.6,0.2-0.8,0.1c-0.9-0.5-1.3,0.3-1.5,0.4c-0.2,0-0.6-0.4-1,0.5c-0.2,0.4-1.1,0.6-1.2,0.6c-0.4,0-0.5-0.2-0.5-0.2
			c0-0.1-0.1-0.2-0.1-0.3c0-0.1-0.1-0.1-0.1-0.2C38.5,38,38.3,38,38.2,38c-0.3,0-0.5,0.3-0.5,0.5c0,0.1,0,0.2,0.1,0.3
			c0,0,0.1-0.1,0.2-0.1c0.2,0,0.4,0.2,0.4,0.4v0c0,0.4-0.6,0.9-0.6,0.9c-0.4,0.3-0.9-0.1-0.9-0.1c-0.3-0.2-0.5-0.2-0.5-0.2
			c-0.3,0-0.4,0.3-0.4,0.3s-0.1-0.3-0.4-0.3c0,0-0.2,0-0.5,0.2c0,0-0.5,0.5-0.9,0.1c0,0-0.7-0.4-0.6-0.9v0c0-0.2,0.2-0.4,0.4-0.4
			c0.1,0,0.2,0.1,0.2,0.1c0.1-0.1,0.1-0.2,0.1-0.3c0-0.3-0.2-0.5-0.5-0.5c-0.1,0-0.3,0-0.4,0.1c-0.1,0.1-0.1,0.1-0.1,0.2
			c0,0.1-0.1,0.2-0.1,0.3c0,0-0.1,0.3-0.5,0.2c-0.1,0-1-0.2-1.2-0.6c-0.4-1-0.8-0.5-1-0.5c-0.2,0-0.7-0.9-1.5-0.4
			c-0.1,0.1-0.3-0.6-0.8-0.1c-0.1,0.1-0.9-0.4-2.2,0c-0.1-0.2-0.5-0.2-0.6-0.3c-0.3-0.1-0.5-0.3-0.7-0.4c-0.4-0.2-1-0.1-1.4-0.1
			c-0.2,0-0.4-0.1-0.5-0.2c-0.5-0.3-1.2-0.7-1.5-1.2c-0.1-0.1-0.2-0.3-0.2-0.3c-0.2-0.2-0.3-0.4-0.4-0.7c-0.2-0.7,0.1-1.4,0.2-2.1
			c0-0.3,0.1-0.5,0.1-0.6c-0.5,0.1-1.2,0.1-2-0.1c0.2,0.7,0.3,1.5,0.2,2.1c0.3,0.2,0.5,0.6,0.5,0.8c0,0.3-0.1,0.7,0.1,1
			c0.3,0.4,0.9,0.8,1.3,1c0.1,0.1,2,1.5,2.2,1.6c0.3,0.1,0.4-0.1,0.7-0.1c0.1,0,0.1,0.1,0.2,0.1c0,0,0.2,0.2,0.4,0.3
			c-0.6,0.3-1.3,0.8-1.8,1c0,0-0.8,0.5-0.4,0.5c0,0,0.6,0,0.6,0.1c0,0-0.2,0.1-0.6,0.3c0.9,0.3,1.8,0.6,2.7,0.8
			c0.6-0.6,1.3-1.2,2-1.4c0,0,1,0,1.4-0.7c0.1-0.2,0.5,0.4,1.5-0.1c0.1,0,0.2,0.2,0.5,0.3c0.1,0-0.4,0.1-0.3,0.5c0,0.1-0.7,0-1,0.4
			c-0.1,0.1-1.7,0.1-3.1,1.3c0.3,0.1,0.5,0.1,0.8,0.2c0.5-0.4,1-0.6,1.7-0.6c0,0,0.9,0.1,1.2,1.1c0.5,0.1,1.1,0.1,1.7,0.2
			c0,0,0,0,0,0c0.2-0.1,0.9-0.4,0.6-0.9c0,0-0.2-0.2-0.5,0.1c0,0-0.2,0.2-0.3-0.1c0,0,0-0.2-0.1-0.3c0,0-0.2-0.2,0.1-0.1
			c0,0,0.3,0.1,0.5,0c0.3,0,0.5-0.2,0.5-0.5c0-0.3-0.2-0.6-0.5-0.6c0,0-0.1,0-0.1,0c0,0,0.1,0.1,0.1,0.1c0,0.1-0.1,0.2-0.2,0.2
			c-0.3-0.1-0.2-0.7,0.2-0.7c0,0,0.4,0,0.7,0.4c0,0,0.7,1.1,1.4,1.3c0,0-0.1,0.4,0.3,0.5c0.1,0,0,0.3,0.4,0.3c0,0,0.1,0.1,0.2,0.4
			c0.4,0,0.8,0,1.2,0c0.4,0,0.8,0,1.2,0c0.1-0.2,0.2-0.4,0.2-0.4c0.4,0,0.4-0.3,0.4-0.3c0.4-0.1,0.3-0.5,0.3-0.5
			c0.7-0.2,1.4-1.3,1.4-1.3c0.3-0.4,0.7-0.4,0.7-0.4c0.4,0,0.5,0.6,0.2,0.7c-0.1,0-0.2-0.1-0.2-0.2c0-0.1,0-0.1,0.1-0.1
			c0,0-0.1,0-0.1,0c-0.3,0-0.5,0.3-0.5,0.6c0,0.3,0.2,0.5,0.5,0.5c0.3,0,0.5,0,0.5,0c0.3-0.1,0.2,0.1,0.2,0.1
			c-0.1,0.1-0.1,0.3-0.1,0.3c-0.1,0.3-0.3,0.1-0.3,0.1c-0.3-0.3-0.5-0.1-0.5-0.1c-0.3,0.5,0.4,0.8,0.6,0.9c0,0,0,0,0,0
			c0.6-0.1,1.1-0.1,1.7-0.2c0.4-1,1.2-1.1,1.2-1.1c0.7,0,1.2,0.2,1.7,0.6c0.3-0.1,0.5-0.1,0.8-0.2c-1.4-1.2-3-1.2-3.1-1.3
			c-0.2-0.4-1-0.4-1-0.4c0.1-0.4-0.4-0.5-0.3-0.5c0.3-0.1,0.4-0.3,0.5-0.3c0.9,0.5,1.3-0.2,1.4,0.1c0.3,0.8,1.4,0.7,1.4,0.7
			c0.7,0.3,1.5,0.9,2,1.4c0.8-0.2,1.6-0.5,2.4-0.8c0,0,0,0,0,0c0,0,0-0.1,0-0.1c0,0,0,0,0,0l0,0c0-0.1-0.1-0.1-0.1-0.2
			c-0.2-0.3-0.5-0.7-0.6-0.8c0,0,0,0,0,0c0,0,0,0,0,0c0,0,0.6-0.9,1-0.3c0,0.1,0,0.3-0.4,0.3c0,0,0.4,0.7,0.5,1.2c0,0,0,0,0,0
			c0.2-0.1,0.3-0.1,0.4-0.1c0,0,0.1,0,0.1,0c-0.2-0.5-0.6-0.7-0.5-0.9c0.1,0,0.4,0.1,0.6-0.2c0-0.1,0.1-0.4,0.1-0.8
			c0.2,0.1,0.5,0.1,0.6,0.1c0.6,0,0.8-0.9,0.7-1.2c0.1-0.1,0.5-0.4,0.5-0.3c0.2,0.4,1.2,0.9,1.1-0.1c0.2,0.5,0.3,1,0.8,1
			c0.4-0.1,0.1-0.8,0.3-0.8c0.1,0.2,0.3,1,0.9,0.8c0.2-0.1,0.3-0.2,0.3-0.5c0-0.8-2.1-4.7-2.3-6.5c0,0-0.1,0-0.1,0
			C53,30.4,53,30,53,29.8c0,0,0,0,0,0c-0.3,0-0.7-0.3-0.7-1c0-0.7,0.3-1,0.3-1c0,0,0,0,0,0.1c-0.2,0.5-0.3,1.1,0.1,1.5
			c0.1,0.1,0.2,0.1,0.4,0.1c0.1-0.2,0.3-0.3,0.3-0.3c0,0,0,0,0,0.1c-0.2,0.4-0.2,0.8,0,1.1c0.1,0.1,0.3,0.2,0.4,0.2
			c0.6-0.2,0.9-1.4,1.1-1.7c0.4,0.1-0.7,2.4,0.2,2.9c0.3,0,0.5-0.4,0.6-0.8c0.3,0.7-0.9,2.1-0.1,2.5c0.5,0.1,0.7-1.1,0.7-1
			c0.1,1.9-0.9,2.9-0.2,3.2c0.5,0.3,0.7-1.3,0.7-1.1c0,2.1-1.1,2.6-0.6,3c0.5,0.2,0.9-1,0.9-0.7c0,1.9-1,2.3-0.6,2.9
			c0.5,0.7,1.4-1.2,1.4-0.9c0.1,0.4-1,2.6-0.4,2.7c0.5,0.1,0.7-0.6,0.7-0.8c1.6-5.3,1.6-10.5,1.5-12.2c-0.2-2.7-0.4-5.2-1-7.4
			c-0.4-1.4-1.2-4.2-3-4.6c-0.9-0.2-1.5,0.6-1.5,1.3c0,0.6,0.4,0.9,0.3,1.5c-0.2,0.4-0.5,0.8-0.6,1.3c-0.1,0.4,0.3,0.6,0.2,1.1
			c-0.5-0.1-0.8,0.4-1.7,0.2C51.7,22.2,51,22,51,22c0,0,0,0,0,0c0.8,0,1.6-0.3,1.7-0.7c0.2-0.5,0.1-1.4-0.3-1.7
			c-0.5,0.1-0.7,0.5-2.3,0.4c-1.3-0.1-1.7,0.2-1.9,1c-0.1-0.1-0.1-0.2-0.1-0.4c0.1-0.4,0.5-0.7,1-0.8c0.1-0.2,0.1-0.3,0.1-0.6
			c-0.2,0-0.4,0-0.7,0c-0.6,0.1-1.5,0.5-1.7,1.1c0,0.1,0,0.2,0,0.3c0,0.1,0,0.2,0,0.3c0,0.1,0.1,0.1,0.1,0.2
			c0.2,0.4,0.7,0.7,1.8,0.7c0,0,0,0,0,0c0,0-0.2,0.1-0.5,0.1c0,0-1,0-1.4-0.5c0,0-0.1,0.1-0.1,0.1c-0.3,0.3-0.8,0.5-1.2,0.6
			c-0.5,0-1-0.3-1.2-0.5c-0.6-0.9,0.2-2.4,0.2-2.9c0-1.5-2.1-0.8-2.8-0.4c-0.9,0.5-1.6,1.2-2.2,2c-0.3,0.4-0.7,0.9-0.9,1.3
			c0.3,0.1,1,0.5,1.6,0.5l0,0c0,0,0.1,0,0.2,0c0.3,0,0.9-0.1,1.3-0.4c0,0,0.2-0.2,0.5-0.2c0.2,0,0.4,0.1,0.5,0.2
			c0.1,0.1,1.4,1.1,1.8,1.4c0.1,0,0.2,0.2,0.2,0.3c0,0.1,0,0.3-0.2,0.4c-0.1,0.1-0.7,0.9-1.2,1.9c-0.1,0.2-0.1,0.3-0.2,0.5
			c-0.2,0.5-0.3,1.4,0.5,1.7c0,0,0.8,0.2,0.8-1.2c0,0,0.1,0.9,0.8,0.9c0.3,0,0.5-0.3,0.5-0.9c0,0,0,0,0,0c-0.1-0.6-0.1-1.2,0.1-2
			c0,0,0-0.1,0-0.1c0,0,0,0.1,0.1,0.4c0,0.4-0.2,3.6,2.4,5.8c0,0-1.1-0.5-1.9-1.9c-0.4,0.3-1.1,0.8-0.8,2c0.1,0.4,0.4,0.8,0.7,0.9
			c0,0,0,0,0,0.1c0,0.1-0.1,0.2-0.4-0.1h0c0,0-0.1-0.1-0.1-0.1c-0.1-0.1-0.2-0.3-0.2-0.4c-0.3-0.3-0.6-0.6-0.9-0.8l0,0
			c-0.2-0.4-0.1-1.7-1.4-1.7c0,0,0,0-0.1,0h0c-0.1,0-0.1,0-0.2,0c0,0,0,0,0,0c-0.3-1.1-0.2-1.8-0.2-2c0.3-1.6,1.4-3,1.5-3.1
			c0-0.1,0.1-0.1,0.1-0.2c0-0.1-0.1-0.1-0.1-0.1l0,0c-0.4-0.3-1.7-1.3-1.8-1.4l0,0c-0.1-0.1-0.2-0.1-0.3-0.1c-0.2,0-0.3,0.1-0.3,0.1
			c-0.5,0.4-1.2,0.5-1.5,0.5c-0.1,0-0.2,0-0.2,0h0c-0.7,0-1.6-0.5-1.8-0.5c-1.3-0.5-2.2-0.5-2.4-0.5c-0.2,0-1.1,0-2.4,0.5
			c-0.2,0.1-1.1,0.5-1.8,0.5h0c0,0-0.1,0-0.3,0c-0.3,0-1-0.1-1.5-0.5l0,0c0,0-0.1-0.1-0.3-0.1c-0.1,0-0.2,0-0.3,0.1l0,0
			c-0.1,0.1-1.4,1.1-1.8,1.4l0,0c0,0-0.1,0-0.1,0.1c0,0.1,0,0.2,0.1,0.2c0.1,0.2,1.3,1.5,1.5,3.1c0,0.1,0,0.3,0,0.7
			c-0.1-0.3-0.2-0.6-0.3-0.9c0-0.2-0.1-0.3-0.2-0.5l0,0c-0.2-0.3-0.4-0.5-0.7-0.6c-0.2-0.1-0.5-0.2-0.7-0.3
			c-0.3-0.2-0.7-0.5-0.9-0.9c0-0.8-0.4-1.5-0.4-1.5c0.1-0.1,0.6,0.3,0.7,1.2c0.6-0.6,0.9-1.5,1.1-2.6c0.5-0.6,1.7-0.4,2.2-0.3
			c0.1,0,0.3,0.1,0.4,0.1c0.1,0.1,0.2,0.3,0.4,0.4c0.2,0.1,0.4,0,0.7,0c0.1,0.1,0.1,0.2,0.2,0.3c0.1,0,0.1,0,0.2,0l0,0h0
			c0.7,0,1.6-0.5,1.7-0.5l0,0c0,0,0.1,0,0.1,0c-0.3-0.3-0.7-0.4-1.1-0.5c-0.5-0.1-0.7-0.5-1.2-0.6c-0.1,0-0.5-0.1-0.6,0
			c-1,0.1-1.7-0.2-2.6-0.3c-0.9-0.1-0.9,0.5-1.2,1c-0.1,0.2-0.3,0.4-0.4,0.6c-0.2,0.2-0.5,0.2-0.8,0.5c0,0,0,0,0,0
			c-0.1-0.3-0.2-0.8-0.4-1.1c0,0,0,0,0,0c0,0,0-0.1-0.1-0.1c-0.5-0.8-1-1.3-2.1-1.6c-0.2-0.1-0.2-0.1-0.4-0.2c-0.2-0.1,0-0.3,0-0.3
			c0.3-0.2,0.8-0.1,1.2-0.3c0.9-0.4,0.6-1.1,0.2-1.2c-0.4-0.1-1.2-0.3-1.4-0.4c-0.2-0.1-0.3-0.5-0.7-0.6c-0.3-0.1-0.5-0.1-0.7,0
			c-0.2,0-0.3,0.2-0.5,0.2c0.2-0.3,0.5-0.4,1-0.4c-0.4-0.1-0.2-0.7-0.6-0.9c-0.1,0-0.4,0-0.6,0.2c0-0.2-0.1-0.8-0.5-1
			c-0.3-0.2-0.4,0.1-0.4,0.3c0,0.1,0.4,0.3,0.5,1c-0.1,0-0.1,0.1-0.2,0.2c-0.1-0.3-0.2-0.7-0.5-0.9c-0.3-0.2-0.4,0.1-0.4,0.3
			c0,0.1,0.4,0.3,0.5,0.9c-0.1,0.1-0.2,0.2-0.3,0.2c-0.6-0.2-0.7-0.6-0.8-0.6c-0.2,0-0.4,0-0.3,0.4c0.1,0.3,0.6,0.5,0.8,0.6
			c-0.1,0.1-0.1,0.1-0.2,0.2c-0.7-0.1-0.8-0.6-1-0.6c-0.2,0-0.4,0-0.3,0.4c0.2,0.4,0.8,0.6,1,0.6c-0.1,0.2-0.2,0.3-0.1,0.5
			c-0.5-0.1-1.4,0.2-1.3,0.8c0.2,0.1,0.8-0.4,1.4-0.1c0.4,0.6,1,0.6,1.1,0.7c0.2,0.2,0.2,0.5,0.3,0.7c0.2,0.5,0.5,0.9,0.8,1.3
			c0.3,0.5,0.6,1,1,1.4c0,0.1,0.1,0.2,0.1,0.4c-0.4,0.6-1.5,1.3-2,1.8c-0.5,0.4-4.9,3.8-5.5,5.3c-0.1,0.3-0.2,0.8-0.2,1.2
			c-0.3,0.1-0.8,0.1-0.9-0.1c-0.3-0.3,0.3-0.7,0.2-1.1c-0.1-0.2-0.3-0.2-0.5-0.2c-0.3,0.1-0.4,0.8-0.2,1.2c0,0.1,0.2,0.3,0.1,0.3
			c-0.2,0.1-0.3-0.1-0.3-0.3c-0.1,0.1-0.2,0.2-0.1,0.4c0.1,0.3,0.5,0.3,0.6,0.4c0,0.1-0.2,0.2-0.4,0.1c-0.2,0.4,0,0.5,0.1,0.5
			c0.3,0,0.6-0.2,0.7-0.2c0.1,0.2-0.1,0.2-0.3,0.3c0.4,0.5,0.8-0.4,1.3-0.3c0.2,0,1.6,1.3,1.3,2.3c0,0.1-0.1,0.2-0.1,0.2
			c-0.3,0.4-0.8,0.7-1.2,1c-0.7,0.5,0.7,3.4,0.6,4.9c-0.1,0.6,0.5,0.5,0.8,1.4c-0.4,0-0.7,0.1-0.9,0.4c0,0,0,0-0.1,0.1l0,0
			c-0.1,0.1-0.1,0.2-0.1,0.4c0,0.4,0.3,0.7,0.7,0.7c0.4,0,0.7-0.3,0.7-0.7c0,0,0-0.1,0-0.1c0.2,0,0.4,0,0.6,0.1l0.7,0.4
			c0,0-2.3,1.9-6,0.8c0,0-1.7-0.5-1.2-2c0,0,0.1-0.3,0.3-0.4c0,0.2,0.2,0.4,0.3,0.5c0.1,0.1,0.3,0.2,0.5,0.2c0.5,0,0.8-0.4,0.8-0.8
			c0-0.2-0.1-0.4-0.2-0.6c0,0-0.1-0.1-0.1-0.1c0,0,0,0,0,0c0,0,0,0,0,0c-0.2-0.2-0.6-0.3-1.2-0.1c0,0-1.6,0.5-1,2.2
			c0,0-1.1-0.2-1.5,0.3c0,0-0.1,0.2-0.1,0.4v0v0c0,0.1,0,0.2,0.1,0.4c0.1,0.2,0.3,0.3,0.5,0.3c0.2,0,0.4-0.1,0.5-0.2c0,0,0,0,0,0
			c0-0.1,0.2-0.1,0.4,0.1c0,0,1.5,1.7,3.8,1.5c0,0,0.1,1.2,0.8,1.4c0,0,0.1,0,0.1,0c0.2,0,0.4-0.2,0.4-0.4c0-0.2-0.2-0.4-0.4-0.4
			c0,0,0,0,0,0c0,0-0.1-0.4-0.1-0.6c0,0,2.5-0.3,4.1-1.7c0,0,1.1,0.3,1.9,0.4c0,0,0.1,0.3-0.4,0.3c0,0-0.6,0-0.6,0.2
			c0,0,0,0.2,0.5,0.2c0,0-0.1,0.2,0.3,0.5c0,0,0.3,0.1,0.1,0.3c0,0-0.5,0.3-0.3,0.6c0,0,0.1,0.4,0.8,0.3c0,0,0.2,0,0,0.2
			c0,0-0.3,0.4,0.2,0.7c0,0,0.5,0.2,0.7-0.2c0,0,0.1-0.2,0.3,0c0,0,1.5,0.7,2.2-0.4c0,0,0-0.2,0.3,0.1c0,0,0.8,0.9,2.8,1
			c0.1,0.2,0.4,0.4,0.7,0.4c0.4,0,0.7-0.3,0.8-0.6c0.2,0,1.1-0.1,2.1-0.7c0,0,0.3-0.2,0.7-0.4c0,0.6,0.5,1,1.1,1
			c0.6,0,1.1-0.5,1.1-1.1C33.6,45.9,33.3,45.4,32.8,45.4"/>
		<path class="st2" d="M42.7,31.2v2.5C43.2,32.7,43,31.8,42.7,31.2"/>
		<path class="st2" d="M47.6,17.7c0.1,0,0-0.3,0.3-0.4c0.3,0,0.7,0.2,0.8,0.5c0.1,0.3-0.2,1.1,0.8,1.2c0,0,0,0.2,0,0.3h0
			c0,0.2-0.1,0.4-0.1,0.5c0.1,0,0.1,0,0.2,0c1.4,0.1,2.1,0,2.5-0.4c0,0,0.2-0.3,0.4-0.5c0.3-0.7,0.4-1.3,0.2-1.9h0c0,0,0-0.1,0-0.1
			c0-0.1-0.1-0.1-0.1-0.2c-0.3-0.5-1.1-1.2-2.1-1.6c-0.1,0-0.1,0-0.2,0c0,0,0,0,0,0c0,0,0,0,0,0l0,0h0c0,0,0.2,0,0.2,0
			c0.7,0.1,2,0.8,2.2,1.5c0.2-0.1,0.4-0.6,0.5-0.9c0-0.1,0-0.5,0.2-0.9c0.1-0.1,0-0.3-0.1-0.3c-0.1,0-0.2,0-0.3,0.1
			c-0.2,0.4-0.6,0.2-0.4-0.2c0.1-0.1,0-0.3-0.1-0.3c-0.1,0-0.2,0-0.3,0.1c-0.2,0.4-0.6,0.2-0.4-0.2c0.1-0.1,0-0.3-0.1-0.3
			c-0.1,0-0.2,0-0.3,0.1c-0.2,0.4-0.6,0.2-0.4-0.2c0.1-0.1,0-0.3-0.1-0.3c-0.1,0-0.2,0-0.3,0.1c-0.1,0.3-0.2,0.4-0.4,0.6
			c0.8,0.2,1.7,0.6,2.2,1.2c0,0,0.2,0.2,0.3,0.3l0,0h0c0,0,0,0.1,0,0.1c0,0,0,0,0,0c-0.1-0.1-0.2-0.2-0.3-0.3
			c-0.9-0.8-1.7-1.1-2.4-1.2c-0.4,0.1-0.3,0.5-0.3,0.9c-0.7-0.2-1.3,0.4-1.3,0.9c0,0.2,0,0.4,0.1,0.6c0,0,0,0,0,0
			c0,0-0.1-0.1-0.2-0.2c0-0.1-0.1-0.2-0.1-0.4c-0.6,0-1.1,0.4-1.1,0.9C47.1,17.3,47.5,17.7,47.6,17.7 M49.7,16.8
			c0.2-0.2,0.2,0.6,0.8,0.4C50.1,17.8,49.5,17.2,49.7,16.8 M49.7,16.5c0.2-0.1,0.5-0.6,0.8-0.4c0.2,0.1,0.3,0.3,0.5,0.4
			c0.2,0.1,0.4,0.3,0.5,0.4c0.1,0.2-0.2,0.7-0.5,0.3c-0.2-0.3-0.5-1-1-0.7c-0.4,0.2-0.7,0.5-0.8,0.2C49.2,16.5,49.5,16.5,49.7,16.5
			 M48,16.6c-0.1,0.2-0.4,0.2-0.5,0.5C47.2,16.8,47.7,16.3,48,16.6"/>
		<path class="st2" d="M64,43.1c-0.4-0.5-1.5-0.3-1.5-0.3c0.6-1.8-1-2.2-1-2.2c-0.6-0.2-1,0-1.2,0.1c0,0,0,0,0,0c0,0,0,0,0,0
			c0,0-0.1,0.1-0.1,0.1c-0.1,0.2-0.2,0.4-0.2,0.6c0,0.5,0.4,0.8,0.8,0.8c0.2,0,0.3-0.1,0.5-0.2c0.2-0.1,0.3-0.3,0.3-0.5
			c0.2,0.1,0.3,0.4,0.3,0.4c0.5,1.5-1.2,2-1.2,2c-3.7,1.1-6-0.8-6-0.8l0.6-0.4c0.2-0.1,0.4-0.1,0.6-0.1c0,0,0,0.1,0,0.1
			c0,0.4,0.3,0.7,0.7,0.7c0.4,0,0.7-0.3,0.7-0.7c0-0.1,0-0.3-0.1-0.4l0,0c0-0.1-0.1-0.1-0.1-0.1c-0.4-0.7-1.9-0.2-1.9-0.2
			c0.5-1.2,0.1-2.1,0.1-2.1c-0.3-0.5-0.2-0.6-0.2-0.6C55.1,39,55,39,55,39c-0.2-0.3-0.6-0.1-0.6-0.1c-0.6,0.1-0.7-0.1-0.7-0.1
			c-0.5-0.4-0.7-0.1-0.7-0.1c-0.2,0.1,0.1,0.5,0.1,0.5c-0.5,0-0.7,0.7-0.7,0.7C52.1,40.9,53,41,53,41c0.7,0,0.7-0.5,0.7-0.5
			C53.8,40,53,40,53,40c0.1-0.3,0.4-0.3,0.4-0.3c0.8-0.2,1.1,0.7,1.1,0.7c0.6,1-0.2,1.9-0.2,1.9c-0.1,0.1-0.3,0.1-0.3,0.1
			c-0.4-0.2-1.1-0.7-1.1-0.7c0,0,0,0-0.1,0h-0.3c-0.3,0-0.6,0.1-0.8,0.2c0.3,0.3,1.3,1.1,1.3,1.1c-0.7,0.6-1.2,0.2-1.2,0.2
			c-0.4-0.4-0.3-1-0.2-1.3c0,0-0.1,0-0.1,0c-0.3,0.1-0.7,0.3-1,0.4c0.4,0.6,0.9,1.5,0.9,1.5c-0.9,0.3-1-0.8-1.1-1.5
			c-0.2,0.1-0.3,0.1-0.5,0.2c0,0.1,0,0.2,0,0.2c0.1,0.6,0.6,1.4,0.6,1.4c-0.6-0.1-1,0.3-1,0.3c-0.4,0.3-0.4,0.8-0.4,0.9
			c0,0.2,0.2,0.4,0.4,0.4c0.2,0,0.4-0.2,0.4-0.4c0-0.2-0.2-0.4-0.4-0.4c0.2-0.5,0.6-0.1,0.6-0.1c0.7,0.6-0.4,1.3-0.4,1.3
			c-0.7,0.5-1.4-0.4-1.4-0.4c0.8-1.4,0.9-2.3,0.9-2.9c-0.3,0.1-0.5,0.2-0.8,0.3c0.4,1.2-0.5,1.9-0.5,1.9c-0.2-0.2-0.3-0.8-0.3-0.8
			c-0.1-0.3-0.2-0.6-0.3-0.8c-0.2,0.1-0.5,0.1-0.7,0.2c0.3,0.8,0.4,1.9,0.4,1.9c-0.1,0.2-0.6,0.2-0.6,0.2c-0.6,0.1-0.3-0.3-0.3-0.3
			c0.3-0.3,0.2-0.4,0.2-0.4c-0.2-0.4-0.8,0-0.8,0c-0.9,0.5-0.6,1-0.6,1c0.1,0.3,1,0.6,1,0.6c-0.5,0.4-1.4,0.2-1.5,0.2
			c0-0.3-0.2-0.5-0.5-0.5c0,0-0.1,0-0.1,0c-0.3,0-0.5,0.1-0.6,0.2c0,0.1-0.1,0.1-0.1,0.2L43,46.4c-0.4-0.1-0.6-1.1-0.7-2.1
			c-0.2,0-0.3,0-0.5,0.1c0.1,1,0.3,1.9,0.3,1.9c-0.2,0-1-0.6-1-0.6c-1-0.6-1.7-0.4-1.7-0.4c-0.5,0.1-0.9,0.5-0.9,1.1
			c0,0.6,0.5,1.1,1.1,1.1c0.6,0,1.1-0.5,1.1-1c0.4,0.2,0.7,0.4,0.7,0.4c1,0.6,1.9,0.7,2.1,0.7c0.1,0.4,0.4,0.6,0.8,0.6
			c0.3,0,0.5-0.2,0.7-0.4c2.1-0.1,2.8-1,2.8-1c0.2-0.3,0.3-0.1,0.3-0.1c0.8,1.1,2.2,0.4,2.2,0.4c0.3-0.1,0.3,0,0.3,0
			c0.3,0.5,0.7,0.2,0.7,0.2c0.6-0.3,0.2-0.7,0.2-0.7c-0.2-0.2,0-0.2,0-0.2c0.7,0.1,0.8-0.3,0.8-0.3c0.1-0.3-0.4-0.6-0.4-0.6
			c-0.1-0.2,0.1-0.3,0.1-0.3c0.4-0.2,0.3-0.5,0.3-0.5c0.5,0,0.5-0.2,0.5-0.2c0-0.2-0.6-0.2-0.6-0.2c-0.5-0.1-0.4-0.3-0.4-0.3
			c0.7,0,1.9-0.4,1.9-0.4c1.7,1.3,4.1,1.7,4.1,1.7c0,0.2,0,0.6,0,0.6c0,0,0,0,0,0c-0.2,0-0.4,0.2-0.4,0.4c0,0.2,0.2,0.4,0.4,0.4
			c0,0,0.1,0,0.1,0c0.8-0.2,0.8-1.4,0.8-1.4c2.2,0.2,3.8-1.5,3.8-1.5c0.2-0.2,0.3-0.1,0.4-0.1c0,0,0,0,0,0c0.1,0.1,0.3,0.2,0.5,0.2
			c0.2,0,0.4-0.1,0.5-0.3c0.1-0.1,0.1-0.3,0.1-0.4v0v0C64.2,43.2,64,43.1,64,43.1"/>
		<path class="st2" d="M37.1,46c0.2-0.1,0.3-0.3,0.3-0.3c0-0.6-0.4-0.9-0.4-0.9c-0.3,0-0.5,0-0.8,0h0c-0.3,0-0.5,0-0.8,0
			c0,0-0.5,0.3-0.4,0.9c0,0,0,0.2,0.3,0.3c0,0-0.6,0.2-0.6,0.6c0,0-0.1,0.3,0.4,0.7c0,0,0.4,0.4,0.5,0.7c0,0,0,0.4,0.6,0.4
			c0.6,0,0.6-0.4,0.6-0.4c0.1-0.3,0.5-0.7,0.5-0.7c0.5-0.4,0.4-0.7,0.4-0.7C37.6,46.2,37.1,46,37.1,46"/>
		<polygon class="st2" points="41.3,43.5 41.5,43.5 41.4,43.1 		"/>
		<polygon class="st2" points="31.4,43.5 31.7,43.5 31.5,43.2 		"/>
		<path class="st2" d="M30.2,42.7C30.2,42.7,30.2,42.7,30.2,42.7l-0.1,0.4c0.1,0,0.2,0,0.2,0c0,0,0.1,0,0.1-0.1c0,0,0-0.1,0-0.1
			c0-0.1,0-0.1,0-0.2C30.4,42.7,30.3,42.7,30.2,42.7"/>
		<path class="st2" d="M34.5,43c-0.1,0-0.2,0-0.2,0.1c-0.1,0.1-0.1,0.2-0.1,0.4c0,0.2,0,0.3,0.1,0.4c0,0.1,0.1,0.1,0.2,0.1
			c0.1,0,0.2,0,0.2-0.1c0.1-0.1,0.1-0.2,0.1-0.4c0-0.2,0-0.3-0.1-0.4C34.7,43.1,34.6,43,34.5,43"/>
		<path class="st2" d="M38.2,43c-0.1,0-0.2,0-0.2,0.1c0,0.1-0.1,0.2-0.1,0.4c0,0.2,0,0.3,0.1,0.4c0.1,0.1,0.1,0.1,0.2,0.1
			c0.1,0,0.2-0.1,0.2-0.1c0-0.1,0.1-0.2,0.1-0.4c0-0.2,0-0.3-0.1-0.4C38.4,43.1,38.3,43,38.2,43"/>
		<polygon class="st2" points="28.1,43 28.3,43.1 28.3,42.7 		"/>
		<path class="st2" d="M22.4,40.8l-0.2,0.4l0.1,0c0.1,0,0.2,0,0.2,0c0,0,0.1-0.1,0.1-0.1c0-0.1,0-0.1,0-0.2c0,0,0-0.1-0.1-0.1
			C22.5,40.8,22.5,40.8,22.4,40.8"/>
		<path class="st2" d="M23.8,41.3c-0.1,0-0.2,0-0.3,0c-0.1,0.1-0.1,0.2-0.2,0.3c-0.1,0.2-0.1,0.3-0.1,0.4c0,0.1,0.1,0.2,0.2,0.2
			c0.1,0,0.2,0,0.3,0c0.1-0.1,0.1-0.2,0.2-0.4c0.1-0.2,0.1-0.3,0-0.4C24,41.4,23.9,41.3,23.8,41.3"/>
		<path class="st2" d="M25.2,41.7C25.2,41.7,25.2,41.7,25.2,41.7L25,42.1c0.1,0,0.2,0,0.2,0c0,0,0.1,0,0.1,0c0,0,0-0.1,0.1-0.1
			c0-0.1,0-0.1,0-0.2C25.3,41.7,25.3,41.7,25.2,41.7"/>
		<path class="st2" d="M47.3,41.7c0,0-0.1,0-0.2,0c0,0,0,0,0,0l0.1,0.4c0.1,0,0.2-0.1,0.2-0.1c0,0,0.1-0.1,0.1-0.1c0,0,0-0.1,0-0.1
			C47.4,41.8,47.4,41.7,47.3,41.7"/>
		<polygon class="st2" points="49.8,41.6 50.1,41.5 49.8,41.2 		"/>
		<path class="st2" d="M50.9,40c-0.1-0.1-0.3-0.1-0.4-0.1c-0.2,0-0.3,0-0.3,0c-0.6,0.1-5.7,2.4-14.1,2.4c-8.5,0-13.6-2.3-14.1-2.4
			c0,0-0.1,0-0.3,0c-0.2,0-0.3,0-0.4,0.1l-1.7,1.4h0c0.5,0,1.1,0.3,1.1,0.3c4.5,2,9.7,2.8,15.5,2.8c5.8-0.1,10.9-0.9,15.5-2.8
			c0,0,0.6-0.3,1.1-0.3h0L50.9,40z M34.4,42.6l0.4,0l-0.4,0.3h-0.1L34.4,42.6z M22.9,41.2c0,0.1-0.1,0.1-0.1,0.2c-0.1,0-0.1,0-0.2,0
			c-0.1,0-0.2,0-0.3-0.1l-0.1,0l-0.1,0.3c0,0,0,0.1,0,0.1c0,0,0,0.1,0.1,0.1l0,0l0,0.1l-0.6-0.2l0-0.1l0,0c0.1,0,0.1,0,0.1,0
			c0,0,0,0,0.1-0.1l0.2-0.7c0,0,0-0.1,0-0.1c0,0,0,0-0.1-0.1l0,0l0-0.1l0.5,0.2c0.1,0,0.2,0.1,0.3,0.1c0.1,0,0.1,0.1,0.2,0.1
			c0,0.1,0.1,0.1,0.1,0.2C22.9,41.1,22.9,41.2,22.9,41.2 M24.3,42c-0.1,0.2-0.2,0.3-0.3,0.4c-0.2,0.1-0.3,0.1-0.5,0
			c-0.1,0-0.2-0.1-0.3-0.2C23.1,42.1,23,42,23,41.9c0-0.1,0-0.2,0-0.3c0-0.1,0.1-0.2,0.2-0.3c0.1-0.1,0.2-0.1,0.3-0.1
			c0.1,0,0.2,0,0.3,0c0.2,0.1,0.3,0.2,0.4,0.3C24.3,41.6,24.4,41.8,24.3,42 M25.5,42.6c0,0.1,0.1,0.2,0.1,0.2c0,0,0.1,0.1,0.1,0.1
			l0,0.1l-0.4-0.1c0,0-0.1-0.2-0.1-0.3c0-0.1,0-0.2-0.1-0.2c0,0,0,0,0-0.1c0,0-0.1,0-0.1,0l-0.1,0.3c0,0.1,0,0.1,0,0.1
			c0,0,0,0.1,0.1,0.1l0,0l0,0.1l-0.6-0.2l0-0.1l0,0c0.1,0,0.1,0,0.1,0c0,0,0-0.1,0.1-0.1l0.2-0.7c0-0.1,0-0.1,0-0.1
			c0,0-0.1,0-0.1-0.1l0,0l0-0.1l0.5,0.1l0.1,0c0.1,0,0.2,0.1,0.2,0.1c0,0,0.1,0.1,0.1,0.1c0,0,0.1,0.1,0.1,0.1c0,0.1,0,0.1,0,0.2
			c0,0.1-0.1,0.2-0.3,0.2C25.4,42.3,25.5,42.4,25.5,42.6 M27.5,43.4l-1.1-0.2l0-0.1h0c0.1,0,0.1,0,0.1,0c0,0,0-0.1,0-0.1l0.2-0.7
			c0-0.1,0-0.1,0-0.1c0,0-0.1,0-0.1-0.1l0,0l0-0.1l0.6,0.1l0,0.1l0,0c-0.1,0-0.1,0-0.1,0c0,0,0,0,0,0.1L27,43c0,0.1,0,0.1,0,0.1
			c0,0,0,0,0,0c0,0,0.1,0,0.1,0c0.1,0,0.2,0,0.2,0c0.1,0,0.1-0.1,0.1-0.2l0.1,0L27.5,43.4z M28.8,43.6l-0.6-0.1l0-0.1
			c0.1,0,0.1,0,0.1,0c0,0,0,0,0,0c0,0,0,0,0-0.1l0,0l0-0.1L28,43.1l0,0.1c0,0,0,0.1,0,0.1c0,0,0,0,0,0.1c0,0,0.1,0,0.1,0l0,0.1
			l-0.4-0.1l0-0.1c0.1,0,0.1,0,0.2-0.2l0.5-0.9l0.1,0l0.2,1c0,0.1,0,0.2,0.1,0.2C28.8,43.5,28.8,43.5,28.8,43.6L28.8,43.6z
			 M30.9,43.9l-0.4-0.1c0,0-0.1-0.2-0.1-0.3c0-0.1-0.1-0.1-0.1-0.2c0,0,0,0-0.1,0c0,0-0.1,0-0.1,0l0,0.3c0,0.1,0,0.1,0,0.1
			c0,0,0,0,0.1,0.1h0l0,0.1l-0.6-0.1l0-0.1l0,0c0.1,0,0.1,0,0.1,0c0,0,0-0.1,0-0.1l0.1-0.7c0-0.1,0-0.1,0-0.1c0,0-0.1,0-0.1-0.1l0,0
			l0-0.1l0.5,0.1l0.1,0c0.1,0,0.2,0,0.2,0c0,0,0.1,0,0.1,0.1c0,0,0.1,0.1,0.1,0.1c0,0.1,0,0.1,0,0.2c0,0.1-0.1,0.2-0.3,0.3
			c0,0,0.1,0.1,0.2,0.3c0.1,0.1,0.1,0.2,0.1,0.2c0,0,0.1,0,0.1,0L30.9,43.9z M32.2,44L31.6,44l0-0.1c0.1,0,0.1,0,0.1,0c0,0,0,0,0,0
			c0,0,0,0,0-0.1l0,0l0-0.1l-0.4,0l0,0.1c0,0,0,0.1,0,0.1c0,0,0,0,0,0.1c0,0,0.1,0,0.1,0l0,0.1l-0.4,0l0-0.1c0.1,0,0.1,0,0.2-0.2
			l0.5-0.9l0.1,0l0.3,1c0,0.1,0.1,0.2,0.1,0.2C32.1,43.9,32.2,43.9,32.2,44L32.2,44z M33.5,43l-0.8,1l0.3,0c0.1,0,0.1,0,0.2,0
			c0,0,0.1,0,0.1-0.1c0,0,0.1-0.1,0.1-0.1l0.1,0l-0.1,0.4L32.3,44l0-0.1l0.7-1l-0.2,0c-0.1,0-0.2,0-0.3,0c0,0-0.1,0.1-0.1,0.2
			l-0.1,0l0-0.3L33.5,43L33.5,43z M34.9,44c-0.1,0.1-0.3,0.2-0.5,0.2c-0.1,0-0.3,0-0.4-0.1c-0.1-0.1-0.2-0.1-0.2-0.3
			c0-0.1-0.1-0.2-0.1-0.3c0-0.1,0-0.2,0.1-0.3c0.1-0.1,0.1-0.2,0.3-0.2c0.1-0.1,0.2-0.1,0.3-0.1c0.2,0,0.4,0.1,0.5,0.2
			c0.1,0.1,0.2,0.3,0.2,0.5C35.1,43.8,35.1,43.9,34.9,44 M36.7,43.1C36.7,43.1,36.6,43.1,36.7,43.1c-0.1,0-0.1,0.1-0.1,0.1
			c0,0,0,0.1,0,0.1l0,0.9h-0.1l-0.8-0.9v0.6c0,0.1,0,0.1,0,0.2c0,0,0.1,0,0.1,0v0.1h-0.4v-0.1c0,0,0.1,0,0.1,0c0,0,0,0,0.1-0.1
			c0,0,0-0.1,0-0.1l0-0.6c0-0.1-0.1-0.2-0.2-0.2V43l0.4,0l0.7,0.7l0-0.4c0-0.1-0.1-0.2-0.2-0.2V43L36.7,43.1L36.7,43.1z M38.7,44
			c-0.1,0.1-0.3,0.2-0.5,0.2c-0.1,0-0.3,0-0.4-0.1c-0.1-0.1-0.2-0.1-0.2-0.2c-0.1-0.1-0.1-0.2-0.1-0.3c0-0.1,0-0.2,0.1-0.3
			c0.1-0.1,0.1-0.2,0.2-0.2c0.1-0.1,0.2-0.1,0.3-0.1c0.2,0,0.4,0,0.5,0.2c0.1,0.1,0.2,0.3,0.2,0.4C38.9,43.7,38.8,43.8,38.7,44
			 M39.7,44.1l0-0.1l0,0c0.1,0,0.1,0,0.1,0c0,0,0-0.1,0-0.1l-0.1-0.7c0-0.1,0-0.1,0-0.1c0,0-0.1,0-0.1,0l0,0l0-0.1l0.6-0.1l0,0.1
			l0,0c-0.1,0-0.1,0-0.1,0c0,0,0,0.1,0,0.1l0.1,0.7c0,0.1,0,0.1,0,0.1c0,0,0,0,0.1,0c0,0,0.1,0,0.1,0c0.1,0,0.2,0,0.2-0.1
			c0-0.1,0.1-0.1,0.1-0.2l0.1,0l0,0.4L39.7,44.1z M41.6,43.9L41.6,43.9c0-0.1,0.1-0.1,0.1-0.1c0,0,0,0,0,0c0,0,0,0,0,0l0,0l0-0.1
			l-0.4,0l0,0.1c0,0,0,0.1,0,0.1c0,0,0,0,0,0.1c0,0,0.1,0,0.1,0l0,0.1l-0.4,0l0-0.1c0.1,0,0.1-0.1,0.2-0.2l0.3-1l0.1,0l0.5,0.9
			c0,0.1,0.1,0.1,0.1,0.2c0,0,0.1,0,0.1,0l0,0.1L41.6,43.9z M43.7,42.7c0-0.1-0.1-0.1-0.1-0.1c0,0-0.1,0-0.1-0.1c0,0-0.1,0-0.1,0
			l-0.2,0l0.1,0.4l0.1,0c0,0,0.1,0,0.1,0c0,0,0-0.1,0-0.1l0.1,0l0.1,0.4l-0.1,0c0-0.1,0-0.1-0.1-0.1c0,0-0.1,0-0.1,0l-0.1,0l0.1,0.3
			c0,0.1,0,0.1,0,0.1c0,0,0.1,0,0.1,0l0,0l0,0.1l-0.6,0.1l0-0.1l0,0c0.1,0,0.1,0,0.1,0c0,0,0-0.1,0-0.1l-0.1-0.7c0-0.1,0-0.1,0-0.1
			c0,0-0.1,0-0.1,0l0,0l0-0.1l1-0.2l0.1,0.3L43.7,42.7z M45.1,42.4l0.1,0.4c0,0.1,0,0.2,0,0.2c0,0.1,0,0.1,0,0.2
			c0,0.1-0.1,0.1-0.1,0.1c-0.1,0-0.1,0.1-0.2,0.1c-0.1,0-0.2,0-0.3,0c-0.1,0-0.1,0-0.2-0.1c0,0-0.1-0.1-0.1-0.1c0,0,0-0.1-0.1-0.2
			L44,42.5c0-0.1,0-0.1-0.1-0.1c0,0-0.1,0-0.1,0l0-0.1l0.6-0.1l0,0.1l0,0c-0.1,0-0.1,0-0.1,0.1c0,0,0,0.1,0,0.1l0.1,0.5
			c0,0.1,0,0.1,0.1,0.2c0,0,0.1,0.1,0.1,0.1c0.1,0,0.1,0,0.2,0c0.1,0,0.1,0,0.2-0.1c0,0,0.1-0.1,0.1-0.2c0-0.1,0-0.1,0-0.2l-0.1-0.4
			c0-0.1-0.1-0.2-0.2-0.1l0-0.1l0.4-0.1l0,0.1c0,0-0.1,0-0.1,0c0,0,0,0,0,0.1C45,42.3,45,42.3,45.1,42.4 M45.6,43.2L45.6,43.2v-0.1
			c0.1,0,0.1,0,0.1-0.1c0,0,0-0.1,0-0.1l-0.2-0.7c0-0.1,0-0.1-0.1-0.1c0,0-0.1,0-0.1,0l0,0l0-0.1l1-0.2l0.1,0.3l-0.1,0
			c0,0-0.1-0.1-0.1-0.1c0,0-0.1,0-0.1,0c0,0-0.1,0-0.1,0L45.8,42l0.1,0.4l0.1,0c0,0,0.1,0,0.1-0.1c0,0,0-0.1,0-0.1l0.1,0l0.1,0.4
			l-0.1,0c0,0,0,0,0,0c0,0,0-0.1,0-0.1c0,0-0.1,0-0.1,0l-0.1,0l0.1,0.3c0,0.1,0,0.1,0,0.1c0,0,0,0,0.1,0c0,0,0.1,0,0.1,0
			c0.1,0,0.1,0,0.2-0.1c0,0,0.1-0.1,0.1-0.1c0-0.1,0-0.1,0-0.2l0.1,0l0.1,0.4L45.6,43.2z M47.8,42.6c0,0-0.1-0.1-0.3-0.3
			c-0.1-0.1-0.1-0.1-0.1-0.1c0,0,0,0-0.1,0c0,0-0.1,0-0.1,0l0.1,0.3c0,0.1,0,0.1,0.1,0.1c0,0,0.1,0,0.1,0l0,0l0,0.1l-0.6,0.2l0-0.1
			l0,0c0.1,0,0.1,0,0.1-0.1c0,0,0-0.1,0-0.1l-0.2-0.7c0-0.1,0-0.1-0.1-0.1c0,0-0.1,0-0.1,0l0,0l0-0.1l0.5-0.1l0.1,0
			c0.1,0,0.2,0,0.2-0.1c0.1,0,0.1,0,0.2,0c0.1,0,0.1,0,0.1,0.1c0,0,0.1,0.1,0.1,0.1c0,0.1,0,0.3-0.2,0.3c0.1,0,0.1,0.1,0.3,0.2
			c0.1,0.1,0.2,0.1,0.2,0.2c0,0,0.1,0,0.1,0l0,0.1L47.8,42.6z M48.4,42.5L48.4,42.5l0.3-1.3l-0.2,0.1c-0.1,0-0.2,0.1-0.2,0.1
			c0,0,0,0.1,0,0.2l-0.1,0l-0.1-0.3l1-0.3l0,0.1l-0.3,1.2l0.3-0.1c0.1,0,0.1,0,0.2-0.1c0,0,0.1-0.1,0.1-0.1c0,0,0-0.1,0-0.2l0.1,0
			l0.1,0.3L48.4,42.5z M50.2,41.9L50.2,41.9c0-0.1,0-0.1,0.1-0.1c0,0,0,0,0,0c0,0,0,0,0,0l0,0l-0.1-0.1l-0.3,0.1l0,0.1
			c0,0,0,0.1,0,0.1c0,0,0,0,0,0.1c0,0,0.1,0,0.1,0l0,0.1l-0.4,0.1l0-0.1c0.1,0,0.1-0.1,0.1-0.3l0-1l0.1,0l0.7,0.7
			c0.1,0.1,0.1,0.1,0.2,0.1c0,0,0.1,0,0.1,0l0,0.1L50.2,41.9z"/>
		<path class="st2" d="M30.7,23.2c-0.3-0.1-0.5-0.3-0.7-0.4c-0.1,0.1-0.4,0.3-0.6,0.4H30.7z"/>
		<path class="st2" d="M33.8,22.9c-0.1,0.1-0.3,0.2-0.5,0.3c0,0,0,0-0.1,0h5.5c0,0-0.1,0-0.1,0c-0.2-0.1-0.4-0.2-0.5-0.3
			c0,0-0.1,0-0.1,0c-0.2-0.1-0.5-0.2-0.7-0.2h-2.7C34.3,22.7,34.1,22.8,33.8,22.9C33.8,22.9,33.8,22.9,33.8,22.9"/>
		<path class="st2" d="M42,22.8C42,22.8,42,22.8,42,22.8c-0.1,0.1-0.3,0.2-0.6,0.4h1.1C42.3,23.1,42.1,22.9,42,22.8
			C42,22.8,42,22.8,42,22.8"/>
		<path class="st2" d="M29.3,33.7v-2.8C29.1,31.4,28.8,32.6,29.3,33.7"/>
		<polygon class="st2" points="35.9,29 30.7,27.3 34.7,27.3 		"/>
		<path class="st2" d="M35.9,23.6h-7c0,0,0,0,0,0c0,0.1,0,0.1,0.1,0.2c0,0,0.1,0.2,0.3,0.4h6.4L35.9,23.6z"/>
		<path class="st2" d="M35.6,24.5h-6.1c0.1,0.2,0.2,0.3,0.3,0.6h5.6L35.6,24.5z"/>
		<path class="st2" d="M35.3,25.4H30c0.1,0.2,0.1,0.4,0.2,0.6h5L35.3,25.4z"/>
		<path class="st2" d="M35,26.4h-4.8c0,0.2,0.1,0.4,0.1,0.6h4.5L35,26.4z"/>
		<path class="st2" d="M32,28.2h-1.6c0,0.2-0.1,0.4-0.1,0.6h2.5L32,28.2z"/>
		<path class="st2" d="M31.5,27.9l-0.8-0.6h-0.3v0.1c0,0.1,0,0.3,0,0.5H31.5z"/>
		<path class="st2" d="M35.9,23.6L35.9,23.6L35.9,23.6l0,0.6v0.4v0.6v0.4V26v0.4v0.6v2l5.2-1.7H37l-0.1-0.4h4.6
			c0-0.2,0.1-0.4,0.1-0.6h-4.9L36.6,26h5.1c0.1-0.2,0.1-0.4,0.2-0.6h-5.5l-0.1-0.4h5.7c0.1-0.2,0.2-0.4,0.3-0.6h-6.2l-0.1-0.4h6.6
			c0.2-0.3,0.3-0.4,0.4-0.5c0,0,0-0.1,0-0.1H35.9z"/>
		<path class="st2" d="M37.1,32v4.2c0.2-0.1,0.4-0.2,0.6-0.3v-3.5L37.1,32z"/>
		<path class="st2" d="M36.2,31.2v6.1c0.1-0.1,0.2-0.3,0.2-0.3l0-0.1c0.1-0.2,0.2-0.3,0.3-0.4v-4.8L36.2,31.2z"/>
		<path class="st2" d="M35.3,31.5v4.9c0.2,0.2,0.3,0.3,0.5,0.6l0,0c0,0,0.1,0.1,0.1,0.1v-6L35.3,31.5z"/>
		<path class="st2" d="M34.3,32.2v3.6c0.2,0.1,0.4,0.2,0.6,0.3v-4.3L34.3,32.2z"/>
		<path class="st2" d="M38.1,35.7c0.2-0.1,0.4-0.1,0.6-0.1v-2.5l-0.6-0.4V35.7z"/>
		<path class="st2" d="M33.4,35.6c0.2,0,0.4,0.1,0.6,0.1v-3.2l-0.6,0.4V35.6z"/>
		<path class="st2" d="M35.9,29L34,29.7l-0.7-0.5h-3.2c-0.1,0.2-0.1,0.4-0.2,0.6h0h0c-0.1,0.1-0.1,0.3-0.2,0.4v4.1
			c0.1,0.1,0.3,0.3,0.6,0.5v-5.1h0.4V35c0.2,0.1,0.3,0.2,0.6,0.2v-5.6h0.4v5.7c0.2,0,0.4,0.1,0.6,0.1v-5.8h0.4v5.8
			c0.1,0,0.2,0,0.2,0c0,0,0.2,0,0.3,0v-2.4l-0.3,0.2L35.9,29z M33,29.7h0.4v1.6L33,32.5V29.7z"/>
		<path class="st2" d="M41.9,29.7L41.9,29.7c-0.1-0.2-0.2-0.4-0.2-0.6h-3.2l-0.7,0.5l-1.4-0.5L35.9,29l3.1,4.4v2.2
			c0.2,0,0.4,0,0.4,0c0,0,0.1,0,0.1,0v-5.8h0.4v5.8c0.2,0,0.4,0,0.6-0.1v-5.7h0.4v5.6c0.2-0.1,0.4-0.1,0.6-0.2v-5.4h0.4v5.2
			c0.2-0.1,0.4-0.3,0.5-0.4c0,0,0,0,0-0.1v-3.8C42.2,30.3,42,30,41.9,29.7 M39,33.2l-0.4-1.1v-2.4H39V33.2z"/>
		<path class="st2" d="M39,28.8h2.6c-0.1-0.2-0.1-0.4-0.1-0.6h-1.7L39,28.8z"/>
		<path class="st2" d="M41.1,27.3l-0.8,0.6h1.1c0-0.2,0-0.3,0-0.4c0-0.1,0-0.1,0-0.2H41.1z"/>
		<path class="st2" d="M44.2,16.3c0.2,0,0.3,0,0.5,0c1.7-0.5,1.8-2.6,1.5-2.7c0,0,0,0,0,0c0,0.1-0.1,0.3-0.1,0.4
			c-0.1,0.2-0.2,0.4-0.3,0.3c0,0,0,0,0-0.1c0.4-0.7,0.4-1.2,0.2-1.8c-0.1-0.3-0.3-0.7-0.7-0.9c-0.9-0.6-2.6-0.7-3.6,0
			c-0.3-0.3-0.8-0.6-1.2-0.8c-0.1,0.5-0.7,1.3-1.2,1.6c-0.1,0.1-0.4,0.3-0.5,0.3c0,0-0.1,0,0-0.1c0.9-0.6,1.4-1.3,1.4-2.2v0
			c0-0.4-0.1-1.3-0.7-1.9c-0.8-0.9-3.1-1-4.2-0.2c-0.3,0.3-0.4,0.6-0.5,1.1c0.1-0.3,0.4-0.6,0.8-0.8c0.5-0.1,1.4,0,1.5,0.5
			c-0.8-0.8-2.2-0.2-2.4,1.2v0c0,0.1-0.1,0.1-0.1,0.1h0c0,0-0.1,0-0.1-0.6c0-0.4,0.1-0.9,0.3-1.3c-1.8-0.3-3.9,0.5-3.8,3.2
			c0,0.4,0.2,0.7,0.5,1.1c0.1,0.1,0,0.1,0,0.1c-0.1,0-0.3-0.1-0.4-0.3c-0.2-0.2-0.3-0.6-0.4-0.9c-1.1-0.4-1.8-0.4-2.4-0.3
			c-0.6,0.1-1.5,0.6-1.8,1c-0.1,0.2-0.3,0.4-0.4,0.6c-0.2,0.4-0.4,1-0.3,1.6c0.1,1,0.6,1.9,1.3,2.3c1,0.6,2.3,0.5,2.8,0.4
			c0.2-0.1,0.5-0.1,0.8-0.3c0,0,0.1,0,0.1-0.1c0,0,0,0,0,0c0.4-0.4,0.7-0.9,0.6-1.6c0,0,0,0,0,0c0,0,0.1,0.2,0.1,0.4
			c0,0.3-0.1,0.6-0.2,0.9c0,0,0,0.1,0,0.1c0,0.1,0.1,0.2,0.1,0.3c0.2,0.2,0.7,0.3,1.1,0.1c0,0,0,0,0,0c0,0.1-0.3,0.3-0.7,0.3
			c-0.1,0-0.2,0-0.3,0c0.3,0.4,1,0.7,1.7,0.7c0,0,0,0,0,0c0,0-0.2,0.1-0.4,0.1c-0.3,0-0.8-0.1-1.1-0.2c0.4,0.4,1,0.8,2,1
			c0,0.1-0.8,0-1-0.1c0.5,1.9,1.5,1.7,1.5,1.8C34,20.6,33.8,21,34,21.4C35,21,35.8,21,36.1,21c0.2,0,1.1,0,2.2,0.4
			c0.1-0.2,0.1-0.3,0.1-0.5c-0.2-0.5-1.6-0.8-3-0.4c-0.1,0-0.1,0.1-0.2,0.1c0,0,0,0,0,0c0,0,0,0,0,0l0,0l0,0c0,0,0.2-0.1,0.2-0.1
			c0.6-0.3,1.8-0.4,2.5-0.1c0,0,0,0,0,0c0.6,0.3,1.1-0.5,0.9-0.8c0.4,0,0.8-0.2,0.8-0.7c-0.1,0-0.2,0.1-0.2,0.1l0,0
			C39.2,19,39,19,39,19c0,0,0,0,0,0l0,0c0,0,0,0,0,0c0,0,0,0,0,0c0.1,0,0.1-0.1,0.2-0.1c0.8-0.5,1.2-1.4,1.1-1.6
			c-0.1,0.2-0.3,0.3-0.6,0.3c-0.1,0-0.2,0-0.2,0c0,0,0,0,0,0c0.1,0,0.2-0.1,0.3-0.1c0.3-0.2,0.5-0.6,0.7-0.9c-0.5-0.5-0.7-1-1-1.8
			c-0.1-0.3-0.3-0.6-0.7-0.6c0,0-0.1,0-0.1,0c0,0-0.1,0-0.1,0c0,0,0,0,0,0c0.4-0.3,0.8,0,1,0.2c0-0.7,0.3-0.9,0.3-0.9c0,0,0,0,0,0
			c-0.5,1.4,0.5,2.8,1.2,3.2c1,0.5,2.8,0.6,4-0.4c-0.2,0.1-0.5,0.1-0.7,0.1C44.3,16.4,44.1,16.4,44.2,16.3
			C44.1,16.3,44.1,16.3,44.2,16.3 M27.8,16.2c0.6-0.2,1.2-0.5,1-1.1c0-0.2-0.2-0.3-0.4-0.3c-0.4,0-0.6,0.2-0.8,0.5
			c0-0.6,0.4-0.9,1-0.9c0.3,0,0.7,0.3,0.8,0.6C29.6,15.9,28.8,16.3,27.8,16.2 M30.1,15.6c0.3-0.7,0.4-1.9-0.8-2.2
			c-0.9-0.2-1.7,0.5-2.2,0.8c0.3-0.8,1.2-1.5,2.4-1.2c-0.3-0.7-1.2-1-2.2-0.4c-0.3,0.1-0.4,0.3-0.6,0.5c0.2-0.5,0.6-0.9,1.1-1.1
			c0.8-0.3,1.6,0,2,0.4C31.2,13.7,30.5,15.5,30.1,15.6 M36.1,19.4c-0.5,0-0.6-0.4-0.7-0.8c0.2,0.2,0.6,0.4,0.5,0
			c-0.2-0.2-1.4-0.5-1.1-1c0.2-0.3,0.8,0.9,1,0.5c0.1-0.8-2.3-1-2.2-1.7c0-0.4,1.9,0.9,2.2,0.9c0-0.4-2.8-1.5-3.7-3.1
			c-0.1-0.1-0.1-0.2-0.1-0.2c0,0,0,0,0,0c0.5,0.8,1.9,1.9,3.6,2.4C36.3,16.6,36.6,18.5,36.1,19.4 M36.7,19.9
			c-0.2-0.1-0.1-0.4-0.1-0.5c0-0.8,0-1.6-0.2-2.2c-0.1-0.3-0.4-1.4-1.1-2.7c0.3,0.3,1.3,2,1.5,3.2C37,18.3,37.1,19.3,36.7,19.9
			 M37.6,15.1c0.5,0.2-0.3,1.2-0.3,1.4c0.1-0.1,0.5-0.5,0.7-0.4c0.3,0.2-0.5,1.3-0.8,1.3C36.1,16.1,37.6,15.6,37.6,15.1 M37.5,19.5
			c-0.2-0.1-0.2-0.4-0.1-0.5c0.1-0.4,0.5-0.5,0.7-0.8C38.1,18.2,38,18.8,37.5,19.5 M37.3,18.4c-0.2-0.4,0.4-0.9,0.5-1.2
			C38.5,17.1,37.6,18.3,37.3,18.4 M38,8.3c0,0,1,0.2,1.2,1.1c0,0.6-0.3,0.8-0.3,0.7c0,0,0-0.1,0-0.1c0.2-0.4,0.1-1-0.2-1.4
			C38.4,8.5,38,8.3,38,8.3 M43.9,14.1C43.9,14.1,43.9,14.1,43.9,14.1C43.9,14.1,43.9,14.1,43.9,14.1c0-0.1,0-0.2,0-0.3
			c0-0.2,0-0.4,0-0.7c-0.3-1.1-1.2-1.5-1.9-0.9c0,0,0.7-1.4,2.4-0.9c0.4,0.1,0.7,0.5,0.9,1c0.2,0.4,0.1,0.9,0,1.1c0,0,0,0,0,0
			c0,0,0,0,0,0c0-0.3,0-0.7-0.2-1c-0.1-0.2-0.3-0.5-0.5-0.6c0.2,0.2,0.3,0.4,0.4,0.6c0.1,0.2,0.1,0.4,0.1,0.5c0,0.5-0.2,1.1-0.5,1.3
			c0,0,0,0,0,0c0,0,0,0,0,0c0.3-0.6,0.3-1.2,0.1-1.6c0,0,0-0.1-0.1-0.2c-0.2-0.3-0.5-0.7-1-0.7c0.2,0.2,0.4,0.4,0.6,0.7
			C44.3,13,44.3,13.8,43.9,14.1"/>
		<path class="st2" d="M59.8,28.4c-0.2-2.7-0.4-5.1-1-7.4c-0.4-1.4-1.2-4.2-3-4.6c-0.9-0.2-1.5,0.6-1.5,1.3c0,0.6,0.4,0.9,0.3,1.5
			c-0.2,0.4-0.5,0.8-0.6,1.3c-0.1,0.4,0.3,0.6,0.2,1.1c-0.5-0.1-0.8,0.4-1.7,0.2C51.7,22.2,51,22,51,22c0,0,0,0,0,0
			c0.8,0,1.6-0.3,1.7-0.6c0.2-0.5,0.1-1.4-0.3-1.7c-0.5,0.1-0.7,0.5-2.3,0.4c-1.3-0.1-1.7,0.2-1.9,1c-0.1-0.1-0.1-0.2-0.1-0.4
			c0.1-0.4,0.5-0.7,1-0.8c0.1-0.2,0.1-0.3,0.1-0.6c-0.2,0-0.4,0-0.7,0c-0.6,0.1-1.5,0.5-1.7,1.1c0,0.1,0,0.2,0,0.3
			c0,0.1,0,0.2,0,0.3c0,0.1,0.1,0.1,0.1,0.2c0.2,0.4,0.7,0.7,1.8,0.7c0,0,0,0,0,0c0,0-0.2,0.1-0.5,0.1c0,0-1,0-1.4-0.5
			c0,0-0.1,0.1-0.1,0.1c-0.3,0.3-0.8,0.5-1.2,0.6c-0.5,0-1-0.3-1.2-0.6c-0.6-0.9,0.2-2.4,0.2-2.9c0-1.5-2.1-0.8-2.8-0.4
			c-0.9,0.5-1.6,1.2-2.2,2c-0.3,0.4-0.7,0.9-0.9,1.3c0.3,0.1,1,0.5,1.6,0.5l0,0c0,0,0.1,0,0.2,0c0.3,0,0.9-0.1,1.3-0.4
			c0,0,0.2-0.2,0.5-0.2c0.2,0,0.4,0.1,0.5,0.2c0.1,0.1,1.4,1.1,1.8,1.4c0.1,0,0.2,0.1,0.2,0.3c0,0.1,0,0.3-0.2,0.4
			c-0.1,0.1-0.7,0.9-1.2,1.9c-0.1,0.2-0.1,0.3-0.2,0.5c-0.2,0.5-0.3,1.4,0.5,1.7c0,0,0.8,0.2,0.8-1.2c0,0,0.1,0.9,0.8,0.9
			c0.3,0,0.5-0.3,0.5-0.9l0,0c-0.1-0.6-0.1-1.2,0.1-2c0,0,0-0.1,0-0.1c0,0,0,0.1,0.1,0.4c0,0.4-0.2,3.6,2.4,5.8c0,0-1.1-0.5-1.9-1.9
			c-0.4,0.3-1.1,0.8-0.8,2c0.1,0.4,0.4,0.8,0.7,0.9c0,0,0,0,0,0.1c0,0.1-0.1,0.2-0.4-0.1h0c0,0-0.1-0.1-0.1-0.1
			c-0.1-0.1-0.2-0.3-0.2-0.4c-0.3-0.3-0.6-0.5-0.9-0.8l0,0c-0.2-0.4-0.1-1.7-1.4-1.7c0,0,0,0-0.1,0h0c-0.1,0-0.1,0-0.2,0
			c0,0,0,0,0,0c-0.3-1.1-0.2-1.9-0.2-2c0.3-1.6,1.4-3,1.5-3.1c0,0,0.1-0.1,0.1-0.2c0-0.1-0.1-0.1-0.1-0.1l0,0
			c-0.4-0.3-1.7-1.3-1.8-1.4l0,0c-0.1-0.1-0.2-0.1-0.3-0.1c-0.2,0-0.3,0.1-0.3,0.1c-0.5,0.4-1.2,0.5-1.5,0.5c-0.1,0-0.2,0-0.2,0h0
			c-0.7,0-1.6-0.5-1.8-0.5c-1.3-0.5-2.2-0.5-2.4-0.5c-0.2,0-1.1,0-2.4,0.5c-0.2,0.1-1.1,0.5-1.8,0.5h0c0,0-0.1,0-0.3,0
			c-0.3,0-1-0.1-1.5-0.5l0,0c0,0-0.1-0.1-0.3-0.1c-0.1,0-0.2,0-0.3,0.1l0,0c-0.1,0.1-1.4,1.1-1.8,1.4l0,0c0,0-0.1,0.1-0.1,0.1
			c0,0.1,0,0.2,0.1,0.2c0.1,0.2,1.3,1.5,1.5,3.1c0,0.1,0,0.3,0,0.7c-0.1-0.3-0.2-0.6-0.3-0.9c0-0.2-0.1-0.3-0.2-0.5
			c-0.2-0.3-0.4-0.5-0.7-0.6c-0.2-0.1-0.5-0.2-0.7-0.3c-0.3-0.2-0.7-0.5-0.9-0.9c0-0.8-0.4-1.5-0.4-1.5c0.1-0.1,0.6,0.3,0.7,1.2
			c0.6-0.6,0.9-1.5,1.1-2.6c0.5-0.6,1.7-0.4,2.2-0.3c0.1,0,0.3,0.1,0.4,0.1c0.1,0.1,0.2,0.3,0.4,0.4c0.2,0.1,0.4,0,0.7,0
			c0.1,0.1,0.1,0.2,0.2,0.3c0.1,0,0.1,0,0.2,0l0,0h0c0.7,0,1.6-0.5,1.7-0.5l0,0c0,0,0.1,0,0.1,0c-0.3-0.3-0.7-0.4-1.1-0.5
			c-0.5-0.1-0.7-0.5-1.2-0.6c-0.1,0-0.5-0.1-0.6,0c-1,0.1-1.7-0.2-2.6-0.3c-0.9-0.1-0.9,0.5-1.2,1c-0.1,0.2-0.3,0.4-0.4,0.5
			c-0.2,0.2-0.5,0.2-0.8,0.5c0,0,0,0,0,0c-0.1-0.3-0.2-0.8-0.4-1.1c0,0,0,0,0,0c0,0,0-0.1-0.1-0.1c-0.5-0.8-1-1.3-2.1-1.6
			c-0.2-0.1-0.2-0.1-0.4-0.2c-0.2-0.1,0-0.3,0-0.3c0.3-0.2,0.8-0.1,1.2-0.3c0.9-0.4,0.6-1.1,0.2-1.2c-0.4-0.1-1.2-0.3-1.4-0.4
			c-0.2-0.1-0.3-0.5-0.7-0.6c-0.3-0.1-0.5-0.1-0.7,0c-0.2,0-0.3,0.2-0.5,0.2c0.2-0.3,0.5-0.4,1-0.4c-0.4-0.1-0.2-0.7-0.6-0.9
			c-0.1,0-0.4,0-0.6,0.2c0-0.2-0.1-0.8-0.5-1c-0.3-0.2-0.4,0.1-0.4,0.3c0,0.1,0.4,0.3,0.5,1c-0.1,0-0.1,0.1-0.2,0.2
			c-0.1-0.3-0.2-0.7-0.5-0.9c-0.3-0.2-0.4,0.1-0.4,0.3c0,0.1,0.4,0.3,0.5,0.9c-0.1,0.1-0.2,0.2-0.3,0.2c-0.6-0.2-0.7-0.6-0.8-0.6
			c-0.2,0-0.4,0-0.3,0.4c0.1,0.3,0.6,0.5,0.8,0.6c-0.1,0.1-0.1,0.1-0.2,0.2c-0.7-0.1-0.8-0.6-1-0.6c-0.2,0-0.4,0.1-0.3,0.3
			c0.2,0.4,0.8,0.6,1,0.6c-0.1,0.2-0.2,0.3-0.1,0.5c-0.5-0.1-1.4,0.2-1.3,0.8c0.2,0.1,0.8-0.4,1.3-0.1c0.4,0.6,1,0.6,1.1,0.7
			c0.2,0.2,0.2,0.5,0.3,0.7c0.2,0.5,0.5,0.9,0.8,1.3c0.3,0.5,0.6,1,1,1.4c0,0.1,0.1,0.2,0.1,0.4c-0.4,0.6-1.5,1.3-2,1.8
			c-0.5,0.4-4.9,3.8-5.5,5.3c-0.1,0.3-0.2,0.8-0.2,1.2c-0.3,0.1-0.8,0.1-0.9-0.1c-0.3-0.3,0.3-0.7,0.2-1.1c-0.1-0.2-0.3-0.2-0.5-0.2
			c-0.3,0.1-0.4,0.8-0.2,1.2c0.1,0.1,0.2,0.3,0.1,0.3c-0.2,0.1-0.3-0.1-0.3-0.3c-0.1,0.1-0.2,0.2-0.1,0.4c0.1,0.3,0.5,0.3,0.6,0.4
			c0,0.1-0.2,0.2-0.4,0.1c-0.2,0.4,0,0.5,0.1,0.5c0.3,0,0.6-0.2,0.7-0.2c0.1,0.2-0.1,0.2-0.3,0.3c0.4,0.5,0.8-0.4,1.3-0.3
			c0.2,0,1.6,1.3,1.3,2.3c0,0.1-0.1,0.2-0.1,0.2c-0.3,0.4-0.8,0.7-1.2,1c-0.7,0.5,0.7,3.4,0.6,4.9c-0.1,0.6,0.5,0.5,0.8,1.4
			c-0.4,0-0.7,0.1-0.9,0.4c0,0,0,0-0.1,0.1l0,0c-0.1,0.1-0.1,0.2-0.1,0.4c0,0.4,0.3,0.7,0.7,0.7c0.4,0,0.7-0.3,0.7-0.7
			c0,0,0-0.1,0-0.1c0.2,0,0.4,0,0.6,0.1l0.6,0.4c0,0-2.3,1.9-6,0.8c0,0-1.7-0.5-1.2-2c0,0,0.1-0.3,0.3-0.4c0,0.2,0.2,0.4,0.3,0.5
			c0.1,0.1,0.3,0.2,0.5,0.2c0.5,0,0.8-0.4,0.8-0.8c0-0.2-0.1-0.4-0.2-0.6c0,0-0.1-0.1-0.1-0.1c0,0,0,0,0,0c0,0,0,0,0,0
			c-0.3-0.2-0.6-0.3-1.2-0.1c0,0-1.6,0.5-1,2.2c0,0-1.1-0.2-1.5,0.3c0,0-0.1,0.2-0.1,0.4v0v0c0,0.1,0,0.2,0.1,0.4
			c0.1,0.2,0.3,0.3,0.5,0.3c0.2,0,0.4-0.1,0.5-0.2c0,0,0,0,0,0c0-0.1,0.2-0.1,0.4,0.1c0,0,1.5,1.7,3.8,1.5c0,0,0.1,1.2,0.8,1.4
			c0,0,0.1,0,0.1,0c0.2,0,0.4-0.2,0.4-0.4c0-0.2-0.2-0.4-0.4-0.4c0,0,0,0,0,0c0,0-0.1-0.4-0.1-0.6c0,0,2.5-0.3,4.1-1.7
			c0,0,1.1,0.3,1.9,0.4c0,0,0.1,0.3-0.4,0.3c0,0-0.6,0-0.6,0.2c0,0,0,0.2,0.5,0.2c0,0-0.1,0.2,0.3,0.5c0,0,0.3,0.1,0.1,0.3
			c0,0-0.5,0.3-0.3,0.6c0,0,0.1,0.4,0.8,0.3c0,0,0.2,0,0,0.2c0,0-0.3,0.4,0.2,0.7c0,0,0.5,0.2,0.7-0.2c0,0,0.1-0.2,0.3,0
			c0,0,1.5,0.7,2.2-0.4c0,0,0-0.2,0.3,0.1c0,0,0.8,0.9,2.8,1c0.1,0.2,0.4,0.4,0.7,0.4c0.4,0,0.7-0.3,0.8-0.6c0.2,0,1.1-0.1,2.1-0.7
			c0,0,0.3-0.2,0.7-0.4c0,0.6,0.5,1,1.1,1c0.6,0,1.1-0.5,1.1-1.1c0-0.5-0.4-1-0.9-1.1c0,0-0.7-0.2-1.7,0.4c0,0-0.8,0.6-1,0.6
			c0,0,0.2-0.9,0.3-1.9c-0.2,0-0.3,0-0.5-0.1c-0.1,1-0.3,2-0.7,2.1l-0.5,0.1c0-0.1-0.1-0.1-0.1-0.2c-0.1-0.1-0.3-0.3-0.6-0.2
			c0,0,0,0-0.1,0c-0.2,0.1-0.4,0.3-0.5,0.5c-0.1,0-1,0.2-1.5-0.2c0,0,0.9-0.3,1-0.6c0,0,0.3-0.5-0.6-1c0,0-0.7-0.4-0.8,0
			c0,0-0.1,0.2,0.2,0.4c0,0,0.3,0.3-0.3,0.3c0,0-0.4,0-0.6-0.2c0,0,0.1-1.1,0.4-1.9c-0.2-0.1-0.5-0.1-0.7-0.2
			c-0.1,0.3-0.2,0.5-0.3,0.8c0,0,0,0.7-0.3,0.8c0,0-0.9-0.7-0.5-1.9c-0.3-0.1-0.5-0.2-0.8-0.3c0,0.6,0.1,1.6,0.9,2.9
			c0,0-0.7,0.9-1.4,0.4c0,0-1-0.7-0.4-1.3c0,0,0.4-0.4,0.6,0.1c-0.2,0-0.4,0.2-0.4,0.4c0,0.2,0.2,0.4,0.4,0.4c0.2,0,0.4-0.2,0.4-0.4
			c0-0.2,0-0.6-0.4-0.9c0,0-0.4-0.4-1-0.3c0,0,0.6-0.8,0.6-1.4c0,0,0-0.1,0-0.2c-0.2-0.1-0.3-0.1-0.5-0.2c0,0.6-0.2,1.8-1.1,1.4
			c0,0,0.5-0.9,0.9-1.5c-0.3-0.1-0.7-0.3-1-0.4c0,0-0.1,0-0.1,0c0.1,0.3,0.1,0.9-0.2,1.3c0,0-0.4,0.4-1.2-0.2c0,0,1-0.8,1.3-1.1
			c-0.2-0.1-0.5-0.2-0.8-0.2h-0.3c0,0,0,0-0.1,0c0,0-0.6,0.5-1.1,0.7c0,0-0.1,0.1-0.3-0.1c0,0-0.8-0.9-0.2-1.9c0,0,0.4-0.9,1.1-0.7
			c0,0,0.2,0,0.4,0.3c0,0-0.7,0-0.7,0.6c0,0,0,0.5,0.7,0.5c0,0,0.9-0.1,0.7-1.2c0,0-0.2-0.7-0.7-0.7c0,0,0.3-0.4,0.1-0.5
			c0,0-0.2-0.2-0.7,0.1c0,0-0.1,0.2-0.7,0.1c0,0-0.4-0.2-0.6,0.1c0,0-0.1,0-0.1,0.5c0,0,0,0.2-0.2,0.6c0,0-0.1,0.3-0.2,0.8
			c-0.2-0.1-0.4-0.3-0.6-0.3c-0.3-0.3-0.3-1.8-0.7-2.5c-0.1-0.2,0.1-0.9,0.1-1.7c2.3-0.5,3.1-2.2,3.3-3c0.4-1.2-0.1-2.5-0.2-2.9
			c0,0,0,0,0.1,0c0.1,0.2,0.2,0.4,0.2,0.6c1.1,0.1,1.8-0.1,2.4-0.3c0,0,0.1,0,0.1,0c0,0,0.1,0,0.1,0c0.1,0,0.2-0.1,0.3-0.1
			c0,0,0.1,0,0.1,0c1.6-0.8,2.3-2.1,2.7-2.9c-0.2-0.1-0.9-0.3-1.1-0.6c0.6,0,1,0.3,1.6,0.3c0.9,0,1.4-0.5,2.4-0.4
			c0,0.1,0.1,0.4,0.7,0.7c0,0.5,0.1,1,0.2,1.4c0,0.1,0.1,0.2,0.1,0.2s-0.7,0.5-0.5,1c0,0.1,0.1,0.2,0.1,0.4c0,0-0.1,0-0.1,0
			c-0.1,0-0.2,0.1-0.4,0.4c-0.1,0.1-0.5,0.9-0.2,1c0.1,0,0.1,0,0.2,0c-0.2,0.8-0.1,1.8,0.5,2.8l0,0c0,0.1,1.1,1.7,3.8,1.7h0
			c0.3,0,2.7,0,3.5,1.6c0.1,0.1,0.2,0.4,0.4,0.4c0.2,0,0.4-0.3,0.5-0.4c0.9-1.6,3.3-1.7,3.5-1.7h0c2.7,0,3.8-1.7,3.8-1.7l0,0
			c0.3-0.5,0.5-1,0.6-1.5c0.5-0.3,0.5-1.5,0.5-1.7c0.2,0.2,0.5,0.8,1.1,1c-0.1,0.6-0.1,1.5,0.5,1.6c0.2,0,0.3-0.3,0.3-0.5
			c0.5,1.5,0.1,2.4,0.5,2.6c0.5,0,0.5-0.9,0.6-0.9c0,0.1,0.2,0.4,0.2,0.8c0,0.5-0.1,0.9,0.2,1c0.7,0.1,0.4-2,0.9-1.7
			c-0.1,0.9,0,1.4,0.4,1.6c0,0.4-0.1,0.8-0.2,0.8c-1,0.2-1.9-0.6-2.8-0.3c-0.1,0-0.1-0.1-0.1-0.1c-1.6-0.9-2.7-0.2-2.8-0.3
			c-0.5-0.4-0.6,0.2-0.8,0.1c-0.9-0.5-1.3,0.3-1.5,0.4c-0.2,0-0.6-0.4-1,0.5c-0.2,0.4-1.1,0.6-1.2,0.6c-0.4,0-0.5-0.2-0.5-0.2
			c0-0.1-0.1-0.2-0.1-0.3c0-0.1-0.1-0.1-0.1-0.2C38.5,38,38.3,38,38.2,38c-0.3,0-0.5,0.3-0.5,0.5c0,0.1,0,0.2,0.1,0.3
			c0,0,0.1-0.1,0.2-0.1c0.2,0,0.4,0.2,0.4,0.4v0c0,0.4-0.6,0.9-0.6,0.9c-0.4,0.3-0.9-0.1-0.9-0.1c-0.3-0.2-0.5-0.2-0.5-0.2
			c-0.3,0-0.4,0.3-0.4,0.3s-0.1-0.3-0.4-0.3c0,0-0.2,0-0.5,0.2c0,0-0.5,0.5-0.9,0.1c0,0-0.7-0.4-0.6-0.9v0c0-0.2,0.2-0.4,0.4-0.4
			c0.1,0,0.2,0.1,0.2,0.1c0.1-0.1,0.1-0.2,0.1-0.3c0-0.3-0.2-0.5-0.5-0.5c-0.1,0-0.3,0-0.4,0.1c-0.1,0.1-0.1,0.1-0.1,0.2
			c0,0.1-0.1,0.2-0.1,0.3c0,0-0.1,0.3-0.5,0.2c-0.1,0-1-0.2-1.2-0.6c-0.4-1-0.8-0.5-1-0.5c-0.2,0-0.7-0.9-1.5-0.4
			c-0.1,0.1-0.3-0.6-0.8-0.1c-0.1,0.1-0.9-0.4-2.2,0c-0.1-0.2-0.5-0.2-0.6-0.3c-0.3-0.1-0.5-0.3-0.7-0.4c-0.4-0.2-1-0.1-1.4-0.1
			c-0.2,0-0.4-0.1-0.5-0.2c-0.5-0.3-1.2-0.7-1.5-1.2c-0.1-0.1-0.2-0.3-0.2-0.3c-0.2-0.2-0.3-0.4-0.4-0.7c-0.2-0.7,0.1-1.4,0.2-2.1
			c0-0.3,0.1-0.5,0.1-0.6c-0.5,0.1-1.2,0.1-2-0.1c0.2,0.7,0.3,1.5,0.2,2.1c0.3,0.2,0.5,0.6,0.5,0.8c0,0.3-0.1,0.7,0.1,1
			c0.3,0.4,0.9,0.8,1.3,1c0.1,0.1,2,1.5,2.2,1.6c0.3,0.1,0.4-0.1,0.7-0.1c0.1,0,0.1,0.1,0.2,0.1c0,0,0.2,0.2,0.4,0.3
			c-0.6,0.3-1.3,0.8-1.8,1c0,0-0.8,0.5-0.4,0.5c0,0,0.6,0,0.6,0.1c0,0-0.2,0.1-0.6,0.3c0.9,0.3,1.8,0.6,2.7,0.8
			c0.6-0.6,1.3-1.2,2-1.4c0,0,1,0,1.4-0.7c0.1-0.2,0.5,0.4,1.5-0.1c0.1,0,0.2,0.2,0.5,0.3c0.1,0-0.4,0.1-0.3,0.5c0,0.1-0.7,0-1,0.4
			c-0.1,0.1-1.7,0.1-3.1,1.3c0.3,0.1,0.5,0.1,0.8,0.2c0.5-0.4,1-0.6,1.7-0.6c0,0,0.9,0.1,1.2,1.1c0.5,0.1,1.1,0.1,1.7,0.2
			c0,0,0,0,0,0c0.1-0.1,0.9-0.4,0.6-0.9c0,0-0.2-0.2-0.5,0.1c0,0-0.2,0.2-0.3-0.1c0,0,0-0.2-0.1-0.3c0,0-0.2-0.2,0.2-0.1
			c0,0,0.3,0.1,0.5,0.1c0.3,0,0.5-0.2,0.5-0.5c0-0.3-0.2-0.6-0.5-0.6c0,0-0.1,0-0.1,0c0,0,0.1,0.1,0.1,0.1c0,0.1-0.1,0.2-0.2,0.2
			c-0.3-0.1-0.2-0.7,0.2-0.7c0,0,0.4,0,0.7,0.4c0,0,0.7,1.1,1.4,1.3c0,0-0.1,0.4,0.3,0.5c0.1,0,0,0.3,0.4,0.3c0,0,0.1,0.1,0.2,0.4
			c0.4,0,0.8,0,1.2,0c0.4,0,0.8,0,1.2,0c0.1-0.2,0.2-0.4,0.2-0.4c0.4,0,0.4-0.3,0.4-0.3c0.4-0.1,0.3-0.5,0.3-0.5
			c0.7-0.2,1.4-1.3,1.4-1.3c0.3-0.4,0.7-0.4,0.7-0.4c0.4,0,0.5,0.6,0.2,0.7c-0.1,0-0.2-0.1-0.2-0.2c0-0.1,0-0.1,0.1-0.1
			c0,0-0.1,0-0.1,0c-0.3,0-0.5,0.3-0.5,0.6c0,0.3,0.2,0.5,0.5,0.5c0.3,0,0.5-0.1,0.5-0.1c0.3-0.1,0.2,0.1,0.2,0.1
			c-0.1,0.1-0.1,0.3-0.1,0.3c-0.1,0.3-0.3,0.1-0.3,0.1c-0.3-0.3-0.5-0.1-0.5-0.1c-0.3,0.5,0.4,0.8,0.6,0.9c0,0,0,0,0,0
			c0.6-0.1,1.1-0.1,1.7-0.2c0.4-1,1.2-1.1,1.2-1.1c0.7,0,1.2,0.2,1.7,0.6c0.3-0.1,0.5-0.1,0.8-0.2c-1.4-1.2-3-1.2-3.1-1.3
			c-0.2-0.4-1-0.4-1-0.4c0.1-0.4-0.4-0.5-0.3-0.5c0.3-0.1,0.4-0.3,0.5-0.3c0.9,0.5,1.3-0.2,1.4,0.1c0.3,0.8,1.4,0.7,1.4,0.7
			c0.7,0.3,1.5,0.9,2,1.4c0.8-0.2,1.6-0.5,2.4-0.8c0,0,0,0,0,0c0,0,0-0.1,0-0.1c0,0,0,0,0,0l0,0c0-0.1-0.1-0.1-0.1-0.2h0
			c-0.2-0.3-0.5-0.7-0.6-0.8c0,0,0,0,0,0c0,0,0,0,0,0c0,0,0.6-0.9,1-0.3c0,0.1,0,0.3-0.4,0.3c0,0,0.4,0.7,0.5,1.2c0,0,0,0,0,0
			c0.2-0.1,0.3-0.1,0.4-0.1c0,0,0.1,0,0.1,0c-0.2-0.5-0.6-0.7-0.5-0.9c0.1,0,0.4,0.1,0.6-0.2c0-0.1,0.1-0.4,0.1-0.8
			c0.2,0.1,0.5,0.1,0.6,0.1c0.6,0,0.8-0.9,0.7-1.2c0.1-0.1,0.5-0.4,0.5-0.3c0.2,0.4,1.2,0.9,1.1-0.1c0.2,0.5,0.3,1,0.8,1
			c0.4-0.1,0.1-0.8,0.3-0.8c0.1,0.2,0.3,1,0.9,0.8c0.2-0.1,0.3-0.2,0.3-0.5c0-0.8-2.1-4.7-2.3-6.5c0,0-0.1,0-0.1,0
			C53,30.4,53,30,53,29.8c0,0,0,0,0,0c-0.3,0-0.7-0.3-0.7-1c0-0.7,0.3-1,0.3-1c0,0,0,0,0,0.1c-0.2,0.5-0.3,1.1,0.1,1.5
			c0.1,0.1,0.2,0.1,0.4,0.1c0.1-0.2,0.3-0.3,0.3-0.3c0,0,0,0,0,0.1c-0.2,0.4-0.2,0.8,0,1.1c0.1,0.1,0.3,0.2,0.4,0.2
			c0.6-0.2,0.9-1.4,1.1-1.7c0.4,0.1-0.7,2.4,0.2,2.9c0.3,0,0.5-0.4,0.6-0.8c0.3,0.7-0.9,2.1-0.1,2.5c0.5,0.1,0.7-1.1,0.7-1
			c0.1,1.9-0.9,2.9-0.2,3.2c0.5,0.3,0.7-1.3,0.7-1.1c0,2.1-1.1,2.6-0.6,3c0.5,0.2,0.9-1,0.9-0.7c0,1.8-1,2.3-0.6,2.9
			c0.5,0.7,1.4-1.2,1.4-0.9c0.1,0.4-1,2.6-0.4,2.7c0.5,0.1,0.7-0.6,0.7-0.8C59.9,35.3,59.9,30.2,59.8,28.4 M44,18.7
			C44,18.7,43.9,18.7,44,18.7c-0.5-0.2-1.3-0.2-1.9,0.1c-0.4,0.2-0.7,0.6-0.8,0.7c-0.1,0,0.7-1.1,1.9-1.2C44,18.2,44.1,18.6,44,18.7
			 M46.7,22.1c-0.2,0.3-0.4,0.7-0.8,0.7c-0.7,0.2-1.4-0.4-1.4-0.5c0-0.1,0.6,0.3,1.2,0.2C46.1,22.6,46.4,22.3,46.7,22.1
			C46.7,22,46.7,22.1,46.7,22.1 M16.8,41.4L16.8,41.4L16.8,41.4L16.8,41.4L16.8,41.4c0.1,0.1,0.2,0.1,0.3,0.2c0,0,0.1,0.1,0.1,0.1
			c-0.1,0.1-0.2,0.1-0.3,0c0,0,0,0,0,0c-0.1-0.1-0.3-0.1-0.3-0.2c-0.1,0.2,0.1,0.3,0.2,0.5c0,0.1-0.1,0.1-0.1,0.1l0,0
			c-0.1,0-0.2,0-0.2,0h0c0,0,0,0,0,0C16.1,42,16,41.7,16,41.5c0-0.1-0.1-0.4-0.4-0.6C16.1,40.7,16.7,41.3,16.8,41.4 M20.6,18.4
			c0.6,0.2,0.7-0.6,0.8-0.4C21.6,18.4,21,18.9,20.6,18.4 M21.4,17.8c-0.3,0-0.4-0.2-0.7,0c0,0-0.3,0.3-0.3,0.6
			c0,0.2-0.3,0.3-0.4,0.2c-0.2-0.5,0.6-1.2,0.8-1.3c0.5-0.2,0.8,0.1,1.3,0.2c0.3,0,0.6,0,0.9,0c0.6,0,0.4,0.5,0.3,0.5
			c-0.5,0.1-0.7-0.2-1.1-0.3C22,17.6,21.6,17.8,21.4,17.8 M23.5,21.1c-0.7-0.2-1.5-0.3-1.7-0.9c1,0.1,1.9,0.1,2.6,0.4c0,0,0,0,0.1,0
			c0.2,0.1,0.7,0.5,0.9,1.3C24.5,21.4,24.2,21.3,23.5,21.1 M28.5,26.9c-0.2,0-0.2-0.8-1.3-0.6c-0.6,0.2-1,0.1-1.3-0.1
			C27.4,25.4,28.6,26.2,28.5,26.9 M43.5,29.1c0.1,0,0.1,0,0.2,0h0c0.1,0,0.1,0,0.2,0c0,0,0.2,0.3,0.3,0.5c0,0.1,0.1,0.5,0.3,0.6
			c0.1,0.1,0.1,0.4-0.3,0.4h0c-0.4-0.1-0.8-0.6-0.6-1.2c-0.1,0-0.2,0-0.3,0h0c0,0-0.1,0-0.1,0c0,0,0,0,0,0c0,0,0,0-0.1,0
			c0,0,0,0-0.1,0c-0.1,0.1-0.1,0.2-0.2,0.2c0-0.2,0.1-0.4,0.3-0.5c0,0,0,0,0,0C43.3,29.1,43.4,29.1,43.5,29.1 M28.7,31
			C28.7,31,28.7,31.1,28.7,31c0,0.1-0.1,0.2-0.1,0.2c0,0,0,0,0,0.1c0,0,0,0.1-0.1,0.1c0,0,0,0,0,0.1c0,0-0.1,0.1-0.1,0.1
			c0,0,0,0,0,0c0,0-0.1,0.1-0.1,0.1c0,0,0,0,0,0c0,0-0.1,0.1-0.1,0.1c0,0,0,0,0,0c0,0-0.1,0-0.1,0c0,0,0,0,0,0c-0.1,0-0.1,0-0.2,0
			c0,0,0-0.1,0-0.1c0-0.2,0.2-0.3,0.2-0.5c0.1-0.2,0.1-0.3,0.1-0.4c0.2,0,0.3,0,0.3-0.1c-0.2-0.2-0.3-0.6,0.1-0.9
			c0.4-0.4,0-1.4,0.1-1.5c0.1,0.1,0.2,0.4,0.3,0.8c0,0,0,0.1,0,0.1c0,0,0,0.1,0,0.1c0,0,0,0.1,0,0.1c0,0,0,0.1,0,0.1v0.1
			c0,0.1,0,0.1,0,0.2c0,0,0,0.1,0,0.1c0,0,0,0.1,0,0.1c0,0,0,0.1,0,0.1c0,0.1,0,0.1,0,0.2c0,0,0,0.1,0,0.1c0,0,0,0.1,0,0.1
			c0,0,0,0.1,0,0.1c0,0,0,0.1,0,0.1c0,0.1,0,0.1,0,0.1C28.8,30.9,28.8,30.9,28.7,31C28.7,30.9,28.7,31,28.7,31 M42.8,34.2
			c-0.1,0.2-1,1.6-3.4,1.6c-0.2,0-2.1,0-2.8,1.3c0,0,0,0,0,0.1c-0.1,0.1-0.3,0.5-0.4,0.7c0,0-0.1,0.1-0.1,0.1c0,0-0.1,0-0.1-0.1
			c-0.1-0.2-0.3-0.6-0.4-0.7c0,0,0-0.1,0-0.1c-0.7-1.2-2.6-1.3-2.8-1.3c-2.4,0-3.3-1.4-3.4-1.6c-1.2-1.7-0.1-3.7-0.1-3.7
			c1-1.7,0.9-2.9,0.8-3.1c0-1.9-1.2-3.3-1.3-3.4c-0.1-0.1-0.1-0.3-0.1-0.4c0-0.2,0.2-0.3,0.2-0.3c0.3-0.2,0.8-0.5,1.1-0.7l0.1-0.1
			c0,0,0.1,0,0.1,0c0.1,0,0.1,0,0.2,0.1c0.2,0.2,0.7,0.5,1.4,0.5c0.1,0,0.3,0,0.4,0c0.4-0.1,1-0.4,1-0.4c0.2-0.1,0.4-0.2,0.6-0.3
			l0.1,0c1.1-0.4,2-0.5,2.2-0.5c0.2,0,1.1,0,2.2,0.5l0.1,0c0.1,0,0.4,0.2,0.6,0.3c0,0,0.7,0.3,1,0.4c0.1,0,0.3,0,0.4,0
			c0.8,0,1.2-0.3,1.4-0.5c0.1-0.1,0.2-0.1,0.2-0.1c0,0,0.1,0,0.1,0c0,0,0,0,0.1,0.1c0.3,0.2,0.8,0.5,1.1,0.7c0,0,0.1,0.1,0.2,0.3
			c0,0.1,0,0.2-0.1,0.4c-0.1,0.2-1.3,1.6-1.3,3.4c0,0.2-0.1,1.4,0.9,3.1C42.9,30.5,44,32.5,42.8,34.2 M44.5,32.8L44.5,32.8
			C44.5,32.8,44.5,32.8,44.5,32.8c-0.1,0.1-0.1,0.1-0.1,0.1c0,0,0,0,0,0c0,0,0,0-0.1,0c0,0,0,0,0,0c0,0,0,0-0.1,0c0,0,0,0,0,0
			c0,0,0,0-0.1,0h0c0,0,0,0-0.1,0c0,0,0,0,0,0c0,0,0,0-0.1,0c0,0,0,0,0,0c0,0-0.1,0-0.1-0.1c0,0,0,0,0,0c0,0-0.2-0.3,0.1-0.3
			c0,0,0.1,0.1,0.1,0.1c0,0,0,0,0,0c0,0,0,0,0.1,0c0,0,0,0,0,0c0,0,0,0,0.1,0c0,0,0,0,0,0c0,0,0,0,0,0c0,0,0,0,0,0c0,0,0,0,0,0
			c0,0,0,0,0,0c0,0,0-0.1,0-0.1c0,0,0,0,0,0c0,0,0-0.1,0-0.1c0,0,0,0,0-0.1c0,0,0,0,0-0.1c0-0.4,0-1,0.1-1.2c0,0,0,0,0,0
			c0,0,0,0,0,0c0,0,0,0,0,0h0c0,0,0,0,0.1,0c0,0,0,0,0,0c0,0,0,0,0,0c0,0,0,0,0,0c0,0,0,0,0,0.1c0,0,0,0,0,0c0,0,0,0.1,0,0.1v0
			c0,0.1,0,0.3,0,0.4c0,0,0,0,0,0.1v0c0,0.1,0,0.2,0,0.3C44.7,32.2,44.7,32.5,44.5,32.8 M48.9,33.6c-1.3,0.1-2.1-1-2-1
			c0.1,0,0.4,0.4,0.9,0.6c0.6,0.2,1.4,0.1,1.8-0.2c0,0,0.1,0,0.1,0C49.8,33,49.7,33.5,48.9,33.6 M25.9,37.3
			C25.9,37.3,25.9,37.4,25.9,37.3C25.9,37.4,25.9,37.4,25.9,37.3c-0.1,0.1-0.1,0.1-0.1,0.1c-0.1,0-0.1,0-0.2,0c-0.1,0-0.3,0-0.4,0
			c0,0.1,0,0.2,0.1,0.2v0c0,0,0,0,0,0c0,0,0.1,0,0.1,0.1c0.1,0,0.1,0.1,0.2,0.1c0,0.1-0.2,0.2-0.3,0.2c-0.2,0-0.4-0.3-0.5-0.4
			c0,0,0,0-0.1-0.1c0,0,0,0-0.1,0c-0.2-0.1-0.5-0.2-0.8-0.2c0.1-0.5,1.5-0.2,1.6-0.2C25.6,37.2,25.8,37.2,25.9,37.3
			C25.9,37.3,25.9,37.3,25.9,37.3 M48.4,38.6L48.4,38.6C48.4,38.6,48.4,38.7,48.4,38.6c-0.3,0.1-0.9-0.3-0.9-0.3
			c-0.1-0.1-0.3-0.2-0.6-0.1h0l0,0c-0.2,0.1-0.3,0.4-0.5,0.5c0,0,0-0.1,0-0.1c0,0,0,0,0,0c0,0,0-0.1,0-0.1v0c0,0,0-0.1,0-0.1
			c0,0,0,0,0,0c0,0,0-0.1,0.1-0.1c0,0,0,0,0-0.1c0,0,0,0,0,0c0,0,0,0,0.1-0.1c0,0,0,0,0,0c0.1-0.1,0.3-0.1,0.5-0.1
			c0.2,0,0.5,0.1,0.6,0.2c0.2,0.2,0.6,0.2,0.9,0.2C48.6,38.3,48.4,38.5,48.4,38.6 M53.8,22.3c-0.2,0.1-0.6,0.3-0.8,0.4
			c-0.5,0.1-1-0.1-1.2-0.4c0.4-0.1,0.7,0.1,1.2,0.1c0.2,0,0.3-0.1,0.5-0.1c0.1-0.1,0.3-0.2,0.4-0.2C54,22.1,53.9,22.2,53.8,22.3
			 M58.7,36.3c-0.1,0.5-0.4,1.8-0.4,1.7c1.1-9.9,0.5-12.3,0.3-12.3c-0.2,0.1-0.3,1.2-0.9,0.9c-0.5-0.3,1.2-2.5,0.5-3.7
			c-0.2-0.2-0.3,0.3-0.6,0.2c-0.7-0.2,0.4-2.1,0.2-2.3c-0.2-0.1-0.7-0.3-0.7-1c0-0.3,0.2-0.6,0-0.8c-0.2-0.2-0.2,0.2-0.4,0.1
			c-0.3-0.4,0-0.8-0.2-1c-0.1-0.1-0.3,0.2-0.5,0.1c-0.2-0.2,0.1-0.5-0.1-0.6c-0.3,0-0.8,0.4-0.7,0.9c0,0.3,0.4,0.5,0.3,0.8
			c0,0.3-0.3,0.6-0.4,0.7c-0.5,1.1,0.3,1.3,0.2,1.7c-0.1,0.2-0.4,0.3-0.6,0.2c-0.3-0.1-0.3-1.1-0.3-1.5c0.1-0.4,0.7-1,0.7-1.2
			c0-0.3-0.3-0.6-0.3-1c-0.1-0.6,0.4-1.1,1-1c0.4,0.1,0.6,0.4,0.8,0.7c0.1,0.1,0.2,0.2,0.3,0.3c0.7,0.8,1.2,2.3,1.5,3.4
			C59.4,24.9,59.9,30.3,58.7,36.3"/>
	</g>
	<g>
		<path class="st2" d="M86.6,151.5c-1.1,0.5-1.9,0.7-2.8,0.7c-2.3,0-3.5-1.6-3.5-4.1c0-2.4,1.2-3.9,3.6-3.9c1.2,0,2,0.3,2.6,0.7
			l-0.6,1.2c-0.4-0.3-1.1-0.5-1.9-0.5c-1.4,0-2,1-2,2.6c0,1.8,0.7,2.8,2,2.8c0.5,0,0.9-0.1,1.3-0.2v-1.4h-1.1l-0.1-1.1h2.6V151.5z"
			/>
		<path class="st2" d="M92.9,149.2c0,1.9-1,3-2.7,3c-1.7,0-2.7-1-2.7-3c0-1.7,0.9-2.9,2.7-2.9C92,146.3,92.9,147.6,92.9,149.2z
			 M91.4,149.2c0-1.4-0.4-1.8-1.1-1.8c-0.7,0-1.1,0.5-1.1,1.8c0,1.3,0.4,1.9,1.1,1.9C91,151.1,91.4,150.6,91.4,149.2z"/>
		<path class="st2" d="M95.4,147c0.3-0.3,0.9-0.7,1.5-0.7c1.3,0,2.3,0.9,2.3,2.9c0,2-1.2,3-2.5,3c-0.8,0-1.3-0.3-1.6-0.8l-0.3,0.7
			H94v-8h1.5v2L95.4,147z M95.5,150.5c0.2,0.3,0.6,0.6,1,0.6c0.7,0,1.1-0.5,1.1-1.9c0-1.4-0.4-1.8-1.1-1.8c-0.4,0-0.8,0.2-1.1,0.5
			V150.5z"/>
		<path class="st2" d="M100.8,152.1v-4.6l-0.7-0.1v-0.9h2.2v5.7H100.8z M100.8,144.1h1.5v1.4h-1.5V144.1z"/>
		<path class="st2" d="M105,149.7c0,0.9,0.5,1.4,1.5,1.4c0.6,0,1.2-0.2,1.7-0.5l0.3,1.1c-0.5,0.3-1.2,0.6-2.1,0.6
			c-1.7,0-2.8-1.1-2.8-3c0-1.7,0.8-2.9,2.7-2.9c1.7,0,2.4,1.3,2.4,2.7v0.7H105z M106.1,147.4c-0.8,0-1.1,0.7-1.1,1.4h2.1
			C107.1,148,106.9,147.4,106.1,147.4z"/>
		<path class="st2" d="M112.9,147.7c-0.2-0.1-0.5-0.1-0.7-0.1c-0.4,0-0.8,0.2-1,0.4v4.1h-1.5v-5.7h1.1l0.2,0.8h0
			c0.2-0.4,0.7-0.9,1.4-0.9c0.3,0,0.5,0,0.7,0.1L112.9,147.7z"/>
		<path class="st2" d="M117.3,152.1v-3.4c0-0.9-0.3-1.3-1-1.3c-0.4,0-0.7,0.2-1,0.3v4.3h-1.5v-5.7h1l0.2,0.6
			c0.3-0.4,0.9-0.8,1.8-0.8c1.4,0,2,0.8,2,2.3v3.5H117.3z"/>
		<path class="st2" d="M125.2,149.2c0,1.9-1,3-2.7,3c-1.7,0-2.7-1-2.7-3c0-1.7,0.9-2.9,2.7-2.9C124.2,146.3,125.2,147.6,125.2,149.2
			z M123.6,149.2c0-1.4-0.4-1.8-1.1-1.8c-0.7,0-1.1,0.5-1.1,1.8c0,1.3,0.4,1.9,1.1,1.9C123.3,151.1,123.6,150.6,123.6,149.2z"/>
		<path class="st2" d="M132.5,146.9c-0.1-0.3-0.1-0.6-0.1-1v-1.7h1.5v8h-1.2l-0.2-0.6c-0.2,0.3-0.8,0.7-1.5,0.7
			c-1.3,0-2.3-0.9-2.3-2.9c0-1.9,1.1-2.9,2.4-2.9C131.7,146.3,132.2,146.5,132.5,146.9z M132.4,147.7c-0.2-0.1-0.6-0.3-1-0.3
			c-0.7,0-1.2,0.5-1.2,1.8c0,1.4,0.4,1.9,1.1,1.9c0.4,0,0.8-0.2,1.1-0.5V147.7z"/>
		<path class="st2" d="M136.5,149.7c0,0.9,0.5,1.4,1.5,1.4c0.6,0,1.2-0.2,1.7-0.5l0.3,1.1c-0.5,0.3-1.2,0.6-2.1,0.6
			c-1.7,0-2.8-1.1-2.8-3c0-1.7,0.8-2.9,2.7-2.9c1.7,0,2.4,1.3,2.4,2.7v0.7H136.5z M137.6,147.4c-0.8,0-1.1,0.7-1.1,1.4h2.1
			C138.6,148,138.4,147.4,137.6,147.4z"/>
		<path class="st2" d="M147,152.2c-2.2,0-3.4-1.5-3.4-4.1c0-2.4,1.2-4,3.4-4c1.1,0,2,0.2,2.7,0.7L149,146c-0.4-0.3-1.1-0.5-1.9-0.5
			c-1.3,0-1.9,0.9-1.9,2.6c0,1.8,0.6,2.7,1.9,2.7c0.8,0,1.5-0.3,2.1-0.7l0.5,1.2C148.9,151.9,148,152.2,147,152.2z"/>
		<path class="st2" d="M150.7,152.1v-8h1.5v2.1c0,0.4-0.1,0.7-0.1,0.9c0.3-0.4,0.8-0.8,1.6-0.8c1.6,0,2.1,0.8,2.1,2.3v3.5h-1.5v-3.4
			c0-0.8-0.3-1.3-1-1.3c-0.4,0-0.8,0.2-1,0.3v4.3H150.7z"/>
		<path class="st2" d="M157.4,152.1v-4.6l-0.7-0.1v-0.9h2.2v5.7H157.4z M157.4,144.1h1.5v1.4h-1.5V144.1z"/>
		<path class="st2" d="M160.3,150.6v-6.5h1.5v6.4c0,0.5,0.3,0.5,0.9,0.5v1.1c0,0-0.4,0.1-0.8,0.1
			C160.7,152.2,160.3,151.6,160.3,150.6z"/>
		<path class="st2" d="M165,149.7c0,0.9,0.5,1.4,1.5,1.4c0.6,0,1.2-0.2,1.7-0.5l0.3,1.1c-0.5,0.3-1.2,0.6-2.1,0.6
			c-1.7,0-2.8-1.1-2.8-3c0-1.7,0.8-2.9,2.7-2.9c1.7,0,2.4,1.3,2.4,2.7v0.7H165z M166,147.4c-0.8,0-1.1,0.7-1.1,1.4h2.1
			C167,148,166.8,147.4,166,147.4z"/>
	</g>
	<g>
		<path class="st2" d="M84.6,18c-1.4,0-2.5-0.3-3.4-0.5V8.2h3.2c2.8,0,4.6,1.1,4.6,4.7C89,16.1,87.6,18,84.6,18z M84.3,9.7h-1.3v6.5
			c0.3,0.1,1,0.2,1.7,0.2c1.3,0,2.3-0.7,2.3-3.5C87,10.6,86.2,9.7,84.3,9.7z"/>
		<path class="st2" d="M90.9,17.9V8.2h1.9v9.6H90.9z"/>
		<path class="st2" d="M97.7,14.5h-1.1v3.4h-1.9V8.2h2.9c2,0,3.7,0.9,3.7,3C101.4,13.1,100,14.5,97.7,14.5z M97.6,9.8h-1V13h1
			c1.1,0,1.7-0.7,1.7-1.7C99.4,10.3,98.7,9.8,97.6,9.8z"/>
		<path class="st2" d="M104.4,17.9h-1.9V8.2h3.1c1.9,0,3.4,0.9,3.4,2.9c0,1.3-0.7,2.3-1.8,2.8c0.7,1.3,1.4,2.6,2,4h-2.2l-1.6-3.6
			c-0.4,0-0.7,0-1.1,0V17.9z M105.4,9.7h-0.9v3.1h0.9c1.2,0,1.7-0.6,1.7-1.7C107.1,10,106.5,9.7,105.4,9.7z"/>
		<path class="st2" d="M110.6,17.9V8.2h5.9v1.6h-4.1v2.4h3.1l-0.1,1.7h-3v2.5h4.1v1.6H110.6z"/>
		<path class="st2" d="M121.6,18c-2.7,0-4.2-1.8-4.2-5c0-3,1.4-4.9,4.2-4.9c1.3,0,2.5,0.3,3.3,0.8l-0.7,1.5
			c-0.5-0.4-1.4-0.7-2.4-0.7c-1.6,0-2.4,1.1-2.4,3.2c0,2.2,0.8,3.4,2.4,3.4c0.9,0,1.9-0.4,2.5-0.9l0.6,1.5
			C123.9,17.6,122.8,18,121.6,18z"/>
		<path class="st2" d="M127.3,17.9h-1.8l2.6-9.6h3.1l2.5,9.6h-2.1l-0.5-2.2h-3.3L127.3,17.9z M129.2,9.9l-1.1,4.3h2.6l-1-4.3H129.2z
			"/>
		<path class="st2" d="M86.5,32.1l-0.1-5.4h0c-0.1,0.7-0.2,1.2-0.3,1.5l-0.9,3.9h-1.8l-0.9-3.9c-0.1-0.4-0.2-0.9-0.3-1.5h0l-0.1,5.4
			h-1.1l0.2-6.4h2.1c0,0,0.7,3.2,1.1,5.3h0c0.4-2.1,1.3-5.3,1.3-5.3h2.1l0.2,6.4H86.5z"/>
		<path class="st2" d="M89.2,32.1v-3.8l-0.5-0.1v-0.8h1.8v4.7H89.2z M89.1,25.6h1.3v1.1h-1.3V25.6z"/>
		<path class="st2" d="M94.3,32.1v-2.8c0-0.7-0.3-1-0.8-1c-0.3,0-0.6,0.1-0.8,0.3v3.5h-1.2v-4.7h0.9l0.2,0.5
			c0.3-0.3,0.8-0.6,1.5-0.6c1.2,0,1.6,0.7,1.6,1.9v2.9H94.3z"/>
		<path class="st2" d="M96.8,32.1v-3.8l-0.5-0.1v-0.8H98v4.7H96.8z M96.8,25.6H98v1.1h-1.3V25.6z"/>
		<path class="st2" d="M100.1,28.7c0,0.7,2,0.5,2,2c0,0.8-0.6,1.5-1.8,1.5c-0.6,0-1.1-0.2-1.4-0.3l0.3-0.9c0.2,0.2,0.7,0.3,1.1,0.3
			c0.4,0,0.7-0.2,0.7-0.5c0-0.8-2-0.6-2-2.1c0-0.7,0.5-1.3,1.8-1.3c0.5,0,1,0.1,1.3,0.2l-0.2,0.9c-0.3-0.1-0.7-0.2-1.1-0.2
			C100.3,28.3,100.1,28.4,100.1,28.7z"/>
		<path class="st2" d="M104.7,32.2c-0.8,0-1.4-0.4-1.4-1.6v-2.3h-0.7v-0.9h0.7v-0.8l1.2-0.4v1.2h1.2v0.9h-1.2v2.3
			c0,0.3,0.2,0.5,0.5,0.5c0.3,0,0.5-0.1,0.7-0.2l0.2,0.9C105.7,32.1,105.2,32.2,104.7,32.2z"/>
		<path class="st2" d="M107.4,30.1c0,0.7,0.4,1.2,1.2,1.2c0.5,0,1-0.2,1.4-0.4l0.2,0.9c-0.4,0.2-1,0.5-1.8,0.5
			c-1.4,0-2.3-0.9-2.3-2.4c0-1.4,0.7-2.4,2.2-2.4c1.4,0,2,1,2,2.2v0.5H107.4z M108.3,28.3c-0.6,0-0.9,0.6-0.9,1.1h1.7
			C109.1,28.8,108.9,28.3,108.3,28.3z"/>
		<path class="st2" d="M113.8,28.5c-0.2,0-0.4-0.1-0.6-0.1c-0.3,0-0.6,0.1-0.8,0.3v3.4h-1.2v-4.7h0.9l0.1,0.6h0
			c0.1-0.3,0.6-0.7,1.1-0.7c0.2,0,0.4,0,0.5,0.1L113.8,28.5z"/>
		<path class="st2" d="M114.8,32.1v-3.8l-0.5-0.1v-0.8h1.8v4.7H114.8z M114.7,25.6h1.3v1.1h-1.3V25.6z"/>
		<path class="st2" d="M121.2,29.8c0,1.6-0.8,2.4-2.2,2.4c-1.4,0-2.2-0.8-2.2-2.4c0-1.4,0.8-2.4,2.2-2.4
			C120.4,27.4,121.2,28.4,121.2,29.8z M119.9,29.8c0-1.1-0.3-1.5-0.9-1.5c-0.6,0-0.9,0.4-0.9,1.5c0,1.1,0.3,1.5,0.9,1.5
			C119.6,31.3,119.9,30.9,119.9,29.8z"/>
		<path class="st2" d="M126.9,27.8c-0.1-0.3-0.1-0.5-0.1-0.9v-1.4h1.2v6.6h-1l-0.1-0.5c-0.2,0.3-0.6,0.6-1.2,0.6
			c-1.1,0-1.9-0.8-1.9-2.4c0-1.5,0.9-2.4,2-2.4C126.3,27.4,126.7,27.5,126.9,27.8z M126.8,28.5c-0.2-0.1-0.5-0.2-0.8-0.2
			c-0.6,0-1,0.4-1,1.5c0,1.1,0.4,1.5,0.9,1.5c0.3,0,0.6-0.2,0.9-0.4V28.5z"/>
		<path class="st2" d="M130.1,30.1c0,0.7,0.4,1.2,1.2,1.2c0.5,0,1-0.2,1.4-0.4l0.2,0.9c-0.4,0.2-1,0.5-1.8,0.5
			c-1.4,0-2.3-0.9-2.3-2.4c0-1.4,0.7-2.4,2.2-2.4c1.4,0,2,1,2,2.2v0.5H130.1z M131,28.3c-0.6,0-0.9,0.6-0.9,1.1h1.7
			C131.8,28.8,131.6,28.3,131,28.3z"/>
		<path class="st2" d="M133.8,30.9v-5.3h1.2v5.3c0,0.4,0.2,0.4,0.8,0.4v0.9c0,0-0.4,0.1-0.7,0.1C134.1,32.2,133.8,31.7,133.8,30.9z"
			/>
		<path class="st2" d="M138.6,32.1v-6.4h1.2v6.4H138.6z"/>
		<path class="st2" d="M143.9,32.1v-2.8c0-0.7-0.3-1-0.8-1c-0.3,0-0.6,0.1-0.8,0.3v3.5H141v-4.7h0.9l0.2,0.5
			c0.3-0.3,0.8-0.6,1.5-0.6c1.2,0,1.6,0.7,1.6,1.9v2.9H143.9z"/>
		<path class="st2" d="M147.8,32.2c-0.8,0-1.4-0.4-1.4-1.6v-2.3h-0.7v-0.9h0.7v-0.8l1.2-0.4v1.2h1.2v0.9h-1.2v2.3
			c0,0.3,0.2,0.5,0.5,0.5c0.3,0,0.5-0.1,0.7-0.2l0.2,0.9C148.8,32.1,148.3,32.2,147.8,32.2z"/>
		<path class="st2" d="M150.5,30.1c0,0.7,0.4,1.2,1.2,1.2c0.5,0,1-0.2,1.4-0.4l0.2,0.9c-0.4,0.2-1,0.5-1.8,0.5
			c-1.4,0-2.3-0.9-2.3-2.4c0-1.4,0.7-2.4,2.2-2.4c1.4,0,2,1,2,2.2v0.5H150.5z M151.4,28.3c-0.6,0-0.9,0.6-0.9,1.1h1.7
			C152.2,28.8,152.1,28.3,151.4,28.3z"/>
		<path class="st2" d="M156.9,28.5c-0.2,0-0.4-0.1-0.6-0.1c-0.3,0-0.6,0.1-0.8,0.3v3.4h-1.2v-4.7h0.9l0.1,0.6h0
			c0.1-0.3,0.6-0.7,1.1-0.7c0.2,0,0.4,0,0.5,0.1L156.9,28.5z"/>
		<path class="st2" d="M157.9,32.1v-3.8l-0.5-0.1v-0.8h1.8v4.7H157.9z M157.8,25.6h1.3v1.1h-1.3V25.6z"/>
		<path class="st2" d="M164.3,29.8c0,1.6-0.8,2.4-2.2,2.4c-1.4,0-2.2-0.8-2.2-2.4c0-1.4,0.8-2.4,2.2-2.4
			C163.5,27.4,164.3,28.4,164.3,29.8z M163,29.8c0-1.1-0.3-1.5-0.9-1.5c-0.6,0-0.9,0.4-0.9,1.5c0,1.1,0.3,1.5,0.9,1.5
			C162.7,31.3,163,30.9,163,29.8z"/>
		<path class="st2" d="M167.7,28.5c-0.2,0-0.4-0.1-0.6-0.1c-0.3,0-0.6,0.1-0.8,0.3v3.4h-1.2v-4.7h0.9l0.1,0.6h0
			c0.1-0.3,0.6-0.7,1.1-0.7c0.2,0,0.4,0,0.5,0.1L167.7,28.5z"/>
		<path class="st2" d="M82.6,41.5l-0.9,0.2L80.3,37h1.4l1,3.9h0l1-3.9H85l-1.4,4.8c-0.4,1.3-1.1,1.8-2,1.8c-0.5,0-1.1-0.3-1.3-0.5
			l0.4-0.8h0.1c0,0,0.4,0.3,0.9,0.3c0.5,0,0.8-0.3,1-0.9L82.6,41.5z"/>
		<path class="st2" d="M89.4,41.7c-0.9,0-1.6-0.3-2.1-0.7l0.5-1c0.4,0.3,1,0.6,1.6,0.6c0.6,0,1-0.4,1-0.8c0-1.4-3-0.7-3-2.9
			c0-1,0.8-1.8,2.3-1.8c0.8,0,1.4,0.2,1.9,0.4l-0.4,1c-0.4-0.2-0.9-0.4-1.5-0.4c-0.6,0-1,0.2-1,0.7c0,1.1,3,0.7,3,2.9
			C91.7,40.8,90.8,41.7,89.4,41.7z"/>
		<path class="st2" d="M93.6,39.6c0,0.7,0.4,1.2,1.2,1.2c0.5,0,1-0.2,1.4-0.4l0.2,0.9c-0.4,0.2-1,0.5-1.8,0.5
			c-1.4,0-2.3-0.9-2.3-2.4c0-1.4,0.7-2.4,2.2-2.4c1.4,0,2,1,2,2.2v0.5H93.6z M94.4,37.8c-0.6,0-0.9,0.6-0.9,1.1h1.7
			C95.3,38.3,95.1,37.8,94.4,37.8z"/>
		<path class="st2" d="M101.5,37l0,0.9c-0.2,0-0.6-0.1-0.9-0.2c0.2,0.2,0.4,0.4,0.5,0.7c0,1.1-1.1,1.6-1.9,1.6c-0.2,0-0.4,0-0.6-0.1
			c-0.1,0-0.2,0.1-0.2,0.3c0,0.5,3-0.1,3,1.7c0,1.1-1,1.7-2.2,1.7c-1,0-2-0.4-2-1.3c0-0.6,0.5-0.9,1.2-1c-0.6-0.1-1.2-0.2-1.2-0.8
			c0-0.4,0.4-0.7,0.9-0.7c-0.5-0.3-0.8-0.6-0.8-1.3c0-1.2,1.2-1.6,1.9-1.6C99.6,36.9,100.7,37,101.5,37z M98.9,41.4
			c-0.4,0-0.7,0.3-0.7,0.7c0,0.4,0.4,0.7,0.9,0.7c0.6,0,0.9-0.3,0.9-0.8C100,41.6,99.7,41.4,98.9,41.4z M99.9,38.5
			c0-0.6-0.5-0.7-0.8-0.7c-0.4,0-0.8,0.1-0.8,0.7c0,0.6,0.4,0.7,0.8,0.7C99.5,39.2,99.9,39,99.9,38.5z"/>
		<path class="st2" d="M105.4,41.6l-0.2-0.6c-0.2,0.3-0.7,0.7-1.5,0.7c-1.2,0-1.7-0.6-1.7-1.9V37h1.2v2.8c0,0.7,0.3,1,0.8,1
			c0.3,0,0.6-0.1,0.8-0.3V37h1.3v4.7H105.4z"/>
		<path class="st2" d="M109.7,38c-0.2,0-0.4-0.1-0.6-0.1c-0.3,0-0.6,0.1-0.8,0.3v3.4h-1.2V37h0.9l0.1,0.6h0c0.1-0.3,0.6-0.7,1.1-0.7
			c0.2,0,0.4,0,0.5,0.1L109.7,38z"/>
		<path class="st2" d="M110.7,41.6v-3.8l-0.5-0.1V37h1.8v4.7H110.7z M110.7,35.1h1.3v1.1h-1.3V35.1z"/>
		<path class="st2" d="M116,37.3c-0.1-0.3-0.1-0.5-0.1-0.9v-1.4h1.2v6.6h-1l-0.1-0.5c-0.2,0.3-0.6,0.6-1.2,0.6
			c-1.1,0-1.9-0.8-1.9-2.4c0-1.5,0.9-2.4,2-2.4C115.3,36.9,115.7,37.1,116,37.3z M115.9,38c-0.2-0.1-0.5-0.2-0.8-0.2
			c-0.6,0-1,0.4-1,1.5c0,1.1,0.4,1.5,0.9,1.5c0.3,0,0.6-0.2,0.9-0.4V38z"/>
		<path class="st2" d="M121,41.6l-0.2-0.6c-0.2,0.3-0.7,0.6-1.4,0.6c-0.9,0-1.6-0.6-1.6-1.5c0-0.9,0.6-1.4,1.8-1.4h1v-0.2
			c0-0.6-0.3-0.8-0.8-0.8c-0.6,0-1,0.1-1.4,0.3l-0.3-0.9c0.5-0.2,1.1-0.4,1.8-0.4c1.3,0,1.9,0.6,1.9,1.8v3H121z M120.6,39.6h-0.8
			c-0.5,0-0.8,0.2-0.8,0.6c0,0.4,0.2,0.7,0.7,0.7c0.3,0,0.6-0.1,0.8-0.3V39.6z"/>
		<path class="st2" d="M125.8,37.3c-0.1-0.3-0.1-0.5-0.1-0.9v-1.4h1.2v6.6h-1l-0.1-0.5c-0.2,0.3-0.6,0.6-1.2,0.6
			c-1.1,0-1.9-0.8-1.9-2.4c0-1.5,0.9-2.4,2-2.4C125.1,36.9,125.5,37.1,125.8,37.3z M125.6,38c-0.2-0.1-0.5-0.2-0.8-0.2
			c-0.6,0-1,0.4-1,1.5c0,1.1,0.4,1.5,0.9,1.5c0.3,0,0.6-0.2,0.9-0.4V38z"/>
		<path class="st2" d="M131.8,39.4h-0.7v2.2h-1.2v-6.4h1.9c1.3,0,2.4,0.6,2.4,2C134.2,38.5,133.3,39.4,131.8,39.4z M131.8,36.3h-0.7
			v2.1h0.7c0.7,0,1.2-0.4,1.2-1.2C132.9,36.6,132.5,36.3,131.8,36.3z"/>
		<path class="st2" d="M138,41.6l-0.2-0.6c-0.2,0.3-0.7,0.7-1.5,0.7c-1.2,0-1.7-0.6-1.7-1.9V37h1.2v2.8c0,0.7,0.3,1,0.8,1
			c0.3,0,0.6-0.1,0.8-0.3V37h1.3v4.7H138z M135.6,36.3l-0.1-0.7l2.4-0.7l0.2,0.9L135.6,36.3z"/>
		<path class="st2" d="M140.9,37.5c0.2-0.3,0.7-0.6,1.2-0.6c1.1,0,1.9,0.8,1.9,2.4c0,1.6-1,2.4-2,2.4c-0.7,0-1.1-0.3-1.3-0.7
			l-0.2,0.6h-0.7v-6.6h1.2v1.6L140.9,37.5z M140.9,40.3c0.2,0.3,0.5,0.5,0.8,0.5c0.5,0,0.9-0.4,0.9-1.5c0-1.1-0.4-1.5-0.9-1.5
			c-0.3,0-0.7,0.2-0.9,0.4V40.3z"/>
		<path class="st2" d="M144.8,40.4v-5.3h1.2v5.3c0,0.4,0.2,0.4,0.8,0.4v0.9c0,0-0.4,0.1-0.7,0.1C145.1,41.7,144.8,41.2,144.8,40.4z"
			/>
		<path class="st2" d="M147.8,41.6v-3.8l-0.5-0.1V37h1.8v4.7H147.8z M147.8,35.1h1.3v1.1h-1.3V35.1z"/>
		<path class="st2" d="M153.7,41.3c-0.3,0.1-0.9,0.4-1.6,0.4c-1.4,0-2.2-0.8-2.2-2.4c0-1.5,0.8-2.4,2.2-2.4c0.6,0,1.2,0.1,1.6,0.4
			l-0.3,0.8c-0.3-0.2-0.8-0.3-1.2-0.3c-0.6,0-1.1,0.4-1.1,1.5c0,1.1,0.4,1.5,1.1,1.5c0.5,0,1-0.2,1.3-0.4L153.7,41.3z"/>
		<path class="st2" d="M157.3,41.6l-0.2-0.6c-0.2,0.3-0.7,0.6-1.4,0.6c-0.9,0-1.6-0.6-1.6-1.5c0-0.9,0.6-1.4,1.8-1.4h1v-0.2
			c0-0.6-0.3-0.8-0.8-0.8c-0.6,0-1,0.1-1.4,0.3l-0.3-0.9c0.5-0.2,1.1-0.4,1.8-0.4c1.3,0,1.9,0.6,1.9,1.8v3H157.3z M156.9,39.6h-0.8
			c-0.5,0-0.8,0.2-0.8,0.6c0,0.4,0.2,0.7,0.7,0.7c0.3,0,0.6-0.1,0.8-0.3V39.6z"/>
	</g>
</g>
</svg>
